<svg height='300px' width='300px'  fill="#000000" xmlns="http://www.w3.org/2000/svg" xmlns:xlink="http://www.w3.org/1999/xlink" version="1.1" x="0px" y="0px" viewBox="0 0 100 100" style="enable-background:new 0 0 100 100;" xml:space="preserve"><path d="M95.8,75.9h-0.5v-4.5V50.1V36c0-3.8-3-6.8-6.8-6.8h-1h-1c-3.8,0-6.8,3-6.8,6.8v0.3h-4c-1.1,0-2,0.9-2,2v5.4  c0,0.4,0.1,0.8,0.4,1.2c0,0,0,0,0,0c-0.5,4-4.9,6.4-9.8,8.1c-0.7-1-1.7-1.9-2.8-2.4c2-0.2,3.5-1.8,3.5-3.8S61,42.9,61,42.9h-4  l-2-6.8c-0.9-3.1-4.1-5.6-7.4-5.7H18.6c-3.2,0.2-6.5,2.6-7.4,5.7l-2,6.8h-4c0,0-3.8,1.8-3.8,3.9c0,2,1.6,3.6,3.5,3.8  c-2.4,1.1-4.1,3.6-4,6.5v12.9c-0.2,1.7,1.1,2.9,3.3,3v6.3c-0.6,1.2,1.7,1.9,1.7,1.9h4.3c1.3,0,2.3-1,2.3-2.3v-6.1h40.8v6.1  c0,1.2,1,2.3,2.3,2.3h4.8c0,0,2.3-0.6,2-1.9v-6.3c1.9-0.1,3.2-1.3,3.3-3V57c0-0.4-0.1-0.8-0.2-1.2c5.7-2,11.2-5.1,11.7-10.9  c0,0,0,0-0.1,0.1c0.3-0.4,0.5-0.8,0.5-1.3v-3.4h2v9.8v21.3v4.5h-0.2c-1.4,0-2.6,1.2-2.6,2.6c0,1.4,1.2,2.6,2.6,2.6h16.4  c1.4,0,2.6-1.2,2.6-2.6C98.4,77.1,97.2,75.9,95.8,75.9z M13.5,36.9c0.6-2.2,3.2-4,5.4-4H47c2.3,0,4.8,1.9,5.4,4L55.3,47H10.7  L13.5,36.9z M10.6,63.3c-2.1,0-3.8-1.7-3.8-3.8c0-2.1,1.7-3.8,3.8-3.8c2.1,0,3.8,1.7,3.8,3.8C14.4,61.7,12.7,63.3,10.6,63.3z   M43.2,67.8h-20v-5h20V67.8z M55.5,63.3c-2.2,0-3.8-1.6-3.8-3.8c0-2.1,1.7-3.8,3.8-3.8c2.1,0,3.8,1.7,3.8,3.8  C59.3,61.6,57.7,63.3,55.5,63.3z M83.3,36c0-1.7,1.4-3.1,3.1-3.1h2.1c1.7,0,3.1,1.4,3.1,3.1v6.9h-8.2V36z M82.4,60.5  C82.4,60.5,82.4,60.5,82.4,60.5L89,52c0,0,0.1-0.1,0.1-0.1c0,0,0,0,0.1,0c0.1,0,0.1,0.1,0.1,0.2c0,0,0,0,0,0l-1.8,6.6l4.9,1.3  c0.1,0,0.1,0.1,0.1,0.1c0,0,0,0.1,0,0.1l-6.2,8.6c0,0-0.1,0.1-0.1,0.1c0,0,0,0-0.1,0C86,69,86,68.9,86,68.8l1.4-6.8l-4.9-1.3  c-0.1,0-0.1-0.1-0.1-0.1C82.4,60.6,82.4,60.5,82.4,60.5z"></path></svg>