<?xml version="1.0" encoding="UTF-8"?>
<svg width="960px" height="960px" viewBox="0 0 960 960" version="1.1" xmlns="http://www.w3.org/2000/svg" xmlns:xlink="http://www.w3.org/1999/xlink">
    <title>PV systeem</title>
    <g id="PV-systeem" stroke="none" stroke-width="1" fill="none" fill-rule="evenodd" stroke-linecap="round">
        <path d="M700.132864,264.975726 L938.566543,674.125461 L936.044457,718.733449 L258.024507,797.185163 L9.40090977,275.261632 L700.132864,264.975726 Z" id="Path-166" stroke="#000000" stroke-width="40" stroke-linejoin="round"></path>
        <polyline id="Path-37" stroke="#000000" stroke-width="20" stroke-linejoin="round" points="50.9942157 274.889173 277.221738 749.702476 931.992676 675.642134"></polyline>
        <line x1="279.28748" y1="753.629123" x2="269.711369" y2="798.412973" id="Path-175" stroke="#000000" stroke-width="20" stroke-linejoin="round"></line>
        <line x1="111.156701" y1="400.425982" x2="757.875127" y2="372.368391" id="Path-38" stroke="#000000" stroke-width="20" stroke-linejoin="round"></line>
        <line x1="171.554232" y1="508.363617" x2="812.333148" y2="471.012396" id="Path-38" stroke="#000000" stroke-width="20" stroke-linejoin="round"></line>
        <line x1="222.328687" y1="625.26303" x2="872.216845" y2="569.229914" id="Path-38" stroke="#000000" stroke-width="20" stroke-linejoin="round"></line>
        <line x1="50.9942157" y1="274.889173" x2="277.221738" y2="749.702476" id="Path" stroke="#000000" stroke-width="20" stroke-linejoin="round"></line>
        <line x1="232.994216" y1="266.889173" x2="460.802578" y2="724.086396" id="Path" stroke="#000000" stroke-width="20" stroke-linejoin="round"></line>
        <line x1="403.083976" y1="273.889173" x2="632" y2="709" id="Path" stroke="#000000" stroke-width="20" stroke-linejoin="round"></line>
        <line x1="555" y1="273" x2="791" y2="689" id="Path" stroke="#000000" stroke-width="20" stroke-linejoin="round"></line>
        <g id="Group" transform="translate(276.2788, 369.276)" stroke="#000000" stroke-linejoin="bevel" stroke-width="20">
            <path d="M0,12.2629495 C0,12.2629495 3.17531951,18.9296162 9.52595853,32.2629495 L35.1398861,31.2172644 L25.4375267,11.3485132 C8.47917557,11.9581374 0,12.2629495 0,12.2629495 Z" id="Path-43"></path>
            <path d="M51.916474,121.26295 C51.916474,121.26295 55.0917935,127.929616 61.4424325,141.26295 L88.0177444,139.501958 L78.3153851,119.633207 C60.716111,120.719702 51.916474,121.26295 51.916474,121.26295 Z" id="Path-43"></path>
            <path d="M109.690736,236.26295 C109.690736,236.26295 112.866055,242.929616 119.216694,256.26295 L146.806311,253.747278 L137.103951,233.878527 C118.828474,235.468142 109.690736,236.26295 109.690736,236.26295 Z" id="Path-43"></path>
            <path d="M162.600846,6.34582591 C162.600846,6.34582591 166.156649,12.7293982 173.268256,25.4965426 L198.882184,24.4508575 L188.038372,5.4313896 C171.080021,6.04101381 162.600846,6.34582591 162.600846,6.34582591 Z" id="Path-43"></path>
            <path d="M220.738234,110.717232 C220.738234,110.717232 224.294038,117.100804 231.405645,129.867949 L257.980957,128.106958 L247.137146,109.08749 C229.537872,110.173985 220.738234,110.717232 220.738234,110.717232 Z" id="Path-43"></path>
            <path d="M277.075847,219.833853 C277.075847,219.833853 280.63165,226.217426 287.743257,238.98457 L315.332874,236.468898 L304.489062,217.44943 C286.213585,219.039046 277.075847,219.833853 277.075847,219.833853 Z" id="Path-43"></path>
            <path d="M315.689681,0.914436313 C315.689681,0.914436313 319.594735,7.03815323 327.404843,19.2855871 L353.018771,18.2399019 L341.127208,0 C324.168857,0.609624209 315.689681,0.914436313 315.689681,0.914436313 Z" id="Path-43"></path>
            <path d="M375.537313,101.037208 C375.537313,101.037208 379.442367,107.160925 387.252475,119.408359 L413.827787,117.647368 L401.936224,99.4074656 C384.33695,100.49396 375.537313,101.037208 375.537313,101.037208 Z" id="Path-43"></path>
            <path d="M434.899493,204.671325 C434.899493,204.671325 438.804547,210.795042 446.614655,223.042476 L474.204272,220.526804 L462.312709,202.286902 C444.037232,203.876517 434.899493,204.671325 434.899493,204.671325 Z" id="Path-43"></path>
        </g>
    </g>
</svg>