<svg width="960" height="960" xmlns="http://www.w3.org/2000/svg" version="1.1">
 <title>PV systeem</title>

 <g>
  <title>Layer 1</title>
  <g stroke-linecap="round" fill-rule="evenodd" fill="none" id="PV-systeem">
   <path stroke-linejoin="round" stroke-width="40" stroke="#000000" id="Path-166" d="m701.13286,371.97573l238.43368,409.14973l-2.52208,44.60799l-678.01995,78.45171l-248.6236,-521.92353l690.73195,-10.2859z"/>
   <polyline points="51.99421691894531,381.88916015625 278.22174072265625,856.7024536132812 932.99267578125,782.6421508789062 " stroke-linejoin="round" stroke-width="20" stroke="#000000" id="Path-37"/>
   <line stroke-linejoin="round" stroke-width="20" stroke="#000000" id="Path-175" y2="905.41297" x2="270.71137" y1="860.62912" x1="280.28748"/>
   <line stroke-linejoin="round" stroke-width="20" stroke="#000000" id="Path-38" y2="479.36839" x2="758.87513" y1="507.42598" x1="112.1567"/>
   <line stroke-linejoin="round" stroke-width="20" stroke="#000000" id="Path-38" y2="578.0124" x2="813.33315" y1="615.36362" x1="172.55423"/>
   <line stroke-linejoin="round" stroke-width="20" stroke="#000000" id="Path-38" y2="676.22991" x2="873.21685" y1="732.26303" x1="223.32869"/>
   <line stroke-linejoin="round" stroke-width="20" stroke="#000000" id="Path" y2="856.70248" x2="278.22174" y1="381.88917" x1="51.99422"/>
   <line stroke-linejoin="round" stroke-width="20" stroke="#000000" id="Path" y2="831.0864" x2="461.80258" y1="373.88917" x1="233.99422"/>
   <line stroke-linejoin="round" stroke-width="20" stroke="#000000" id="Path" y2="816" x2="633" y1="380.88917" x1="404.08398"/>
   <line stroke-linejoin="round" stroke-width="20" stroke="#000000" id="Path" y2="796" x2="792" y1="380" x1="556"/>
   <g stroke-width="20" stroke-linejoin="bevel" stroke="#000000" id="Group">
    <path id="Path-43" d="m277.27881,488.53895c0,0 3.17532,6.66667 9.52596,20l25.61393,-1.04569l-9.70236,-19.86875c-16.95835,0.60963 -25.43753,0.91444 -25.43753,0.91444z"/>
    <path id="Path-43" d="m329.19528,597.53895c0,0 3.17532,6.66667 9.52596,20l26.57531,-1.76099l-9.70235,-19.86875c-17.59928,1.08649 -26.39892,1.62974 -26.39892,1.62974z"/>
    <path id="Path-43" d="m386.96955,712.53895c0,0 3.17532,6.66667 9.52595,20l27.58962,-2.51567l-9.70236,-19.86875c-18.27548,1.58961 -27.41321,2.38442 -27.41321,2.38442z"/>
    <path id="Path-43" d="m439.87966,482.62183c0,0 3.5558,6.38357 10.66741,19.15071l25.61392,-1.04568l-10.84381,-19.01947c-16.95835,0.60962 -25.43752,0.91444 -25.43752,0.91444z"/>
    <path id="Path-43" d="m498.01704,586.99323c0,0 3.55581,6.38357 10.66741,19.15072l26.57532,-1.76099l-10.84381,-19.01947c-17.59928,1.0865 -26.39892,1.62974 -26.39892,1.62974z"/>
    <path id="Path-43" d="m554.35466,696.10985c0,0 3.5558,6.38358 10.66741,19.15072l27.58961,-2.51567l-10.84381,-19.01947c-18.27547,1.58962 -27.41321,2.38442 -27.41321,2.38442z"/>
    <path id="Path-43" d="m592.96849,477.19044c0,0 3.90506,6.12371 11.71516,18.37115l25.61393,-1.04569l-11.89156,-18.2399c-16.95835,0.60962 -25.43753,0.91444 -25.43753,0.91444z"/>
    <path id="Path-43" d="m652.81612,577.31321c0,0 3.90506,6.12372 11.71517,18.37115l26.57531,-1.76099l-11.89157,-18.2399c-17.59927,1.08649 -26.39891,1.62974 -26.39891,1.62974z"/>
    <path id="Path-43" d="m712.1783,680.94732c0,0 3.90506,6.12372 11.71517,18.37116l27.58961,-2.51568l-11.89156,-18.2399c-18.27548,1.58962 -27.41322,2.38442 -27.41322,2.38442z"/>
   </g>
  </g>
  <g stroke="null">
   <g stroke="null">
    <path stroke="null" clip-rule="evenodd" fill-rule="evenodd" d="m453.61831,117.77299c-24.3345,-18.03623 -48.39696,-22.01519 -73.27552,-15.13054c5.44064,-13.84784 13.62633,-22.9314 23.24637,-27.19832c13.62633,-6.04698 35.93295,-1.75389 44.71216,11.17775c4.50089,6.5967 6.75134,16.38705 5.31699,31.1511l0,0zm81.48594,99.78825c-0.66771,-2.93187 1.0634,-5.86374 3.83318,-6.57053c2.76978,-0.70679 5.53956,1.12563 6.20728,4.0575c1.33543,5.94227 3.63534,10.54949 6.70188,13.87402c3.14073,3.37688 7.17175,5.54961 11.96941,6.54435c2.79451,0.5759 4.59981,3.42924 4.05575,6.38729c-0.54406,2.95805 -3.23965,4.869 -6.03416,4.29309c-6.82553,-1.43976 -12.68658,-4.60722 -17.31113,-9.60711c-4.4267,-4.76429 -7.64163,-11.04686 -9.4222,-18.97861l0,0zm-173.06179,0c-0.66771,-2.93187 1.0634,-5.86374 3.83318,-6.57053c2.76978,-0.70679 5.53956,1.12563 6.20728,4.0575c1.33543,5.94227 3.63534,10.54949 6.70188,13.87402c3.14073,3.37688 7.17175,5.54961 11.96941,6.54435c2.79451,0.5759 4.59981,3.42924 4.05575,6.38729c-0.54406,2.95805 -3.23965,4.869 -6.03416,4.29309c-6.82553,-1.43976 -12.68658,-4.60722 -17.31113,-9.60711c-4.4267,-4.76429 -7.64163,-11.04686 -9.4222,-18.97861l0,0zm118.11134,-19.921c6.92445,0 12.5382,5.78521 12.5382,12.90546c0,7.12025 -5.61375,12.90546 -12.5382,12.90546c-6.92445,0 -12.5382,-5.78521 -12.5382,-12.90546c0,-7.12025 5.61375,-12.90546 12.5382,-12.90546l0,0zm-85.66534,-34.3971c24.73018,0 44.78635,20.62779 44.78635,46.0984c0,25.44443 -20.05618,46.0984 -44.78635,46.0984c-24.73018,0 -44.78635,-20.62779 -44.78635,-46.0984c0,-25.47061 20.03145,-46.0984 44.78635,-46.0984l0,0zm173.06179,0c24.73018,0 44.78635,20.62779 44.78635,46.0984c0,25.44443 -20.05618,46.0984 -44.78635,46.0984c-24.73018,0 -44.78635,-20.62779 -44.78635,-46.0984c0,-25.47061 20.03145,-46.0984 44.78635,-46.0984l0,0zm-60.16853,-45.47014c24.3345,-18.03623 48.39696,-22.01519 73.25079,-15.13054c-5.44064,-13.84784 -13.62633,-22.9314 -23.24637,-27.19832c-13.62633,-6.04698 -35.93295,-1.75389 -44.68743,11.17775c-4.50089,6.5967 -6.75134,16.38705 -5.31699,31.1511l0,0zm87.19861,0.52355c-8.45772,-9.21444 -22.15824,-13.37665 -41.12629,-12.48662c-21.49053,1.12563 -44.19283,10.62802 -51.48823,32.17202c-6.10835,-14.18815 -36.82324,-14.18815 -42.90686,0c-7.2954,-21.544 -29.99771,-31.07257 -51.48823,-32.17202c-18.96805,-0.89003 -32.64384,3.29835 -41.12629,12.48662c-11.91995,16.9106 -35.51254,61.09805 -37.49095,82.6944c-8.06204,87.64193 110.69228,109.63095 129.73452,19.13568c10.80709,20.28748 32.81695,20.28748 43.62404,0c19.04224,90.52145 137.79656,68.50625 129.73452,-19.13568c-1.97841,-21.59635 -25.57101,-65.7838 -37.46622,-82.6944l0,0z" class="st0"/>
   </g>
  </g>
 </g>
</svg>