<?xml version="1.0" encoding="utf-8"?>
<svg viewBox="0 0 500 500" width="500" height="500" xmlns="http://www.w3.org/2000/svg" xmlns:bx="https://boxy-svg.com">
  <g>
    <path d="M 85.811 286.329 C 84.726 286.329 83.638 285.534 82.888 284.043 C 82.094 282.544 81.634 280.578 81.634 278.44 C 81.634 276.383 82.09 274.335 82.888 272.918 C 84.432 269.92 87.19 269.92 88.777 272.836 C 89.571 274.335 89.987 276.383 89.987 278.44 C 89.987 280.488 89.567 282.544 88.777 284.043 C 88.023 285.551 86.939 286.329 85.811 286.329 Z"/>
    <path d="M 18.936 396.224 C 18.268 392.046 19.521 387.622 21.733 386.361 C 23.906 385.099 26.244 387.467 26.912 391.645 C 27.58 395.823 26.37 400.247 24.158 401.508 C 23.737 401.746 23.321 401.828 22.948 401.828 C 21.152 401.828 19.478 399.616 18.936 396.224 Z M 35.565 383.919 C 34.307 380.217 34.853 375.399 36.775 373.032 C 38.735 370.664 41.329 371.688 42.578 375.317 C 43.836 378.947 43.289 383.837 41.324 386.205 C 40.613 387.082 39.819 387.467 39.069 387.467 C 37.694 387.467 36.35 386.205 35.565 383.919 Z M 49.93 363.881 C 48.299 360.719 48.342 355.754 50.012 352.674 L 50.012 352.756 C 51.643 349.675 54.315 349.757 55.902 352.837 C 57.533 356 57.489 360.964 55.859 364.045 C 55.022 365.544 53.976 366.257 52.935 366.257 C 51.847 366.24 50.767 365.454 49.93 363.881 Z M 62.248 339.345 C 60.456 336.666 60.161 331.694 61.623 328.302 C 63.041 324.902 65.678 324.361 67.469 327.122 C 69.269 329.801 69.556 334.774 68.094 338.166 C 67.3 340.14 66.09 341.082 64.832 341.082 C 63.922 341.082 63.002 340.525 62.248 339.345 Z M 73.19 312.679 C 71.269 310.156 70.848 305.183 72.193 301.635 C 73.528 298.08 76.122 297.294 78.039 299.817 C 79.874 302.34 80.338 307.239 79.002 310.778 C 78.208 312.9 76.916 314.096 75.576 314.096 C 74.738 314.096 73.901 313.621 73.19 312.679 Z"/>
    <path d="M 5.291 406.648 C 4.202 406.648 3.118 405.853 2.324 404.362 C 1.574 402.945 1.114 400.897 1.114 398.841 C 1.114 396.719 1.57 394.663 2.324 393.237 C 3.868 390.321 6.666 390.239 8.258 393.237 C 9.008 394.654 9.468 396.702 9.468 398.841 C 9.468 400.897 9.004 402.945 8.258 404.362 C 7.46 405.862 6.371 406.648 5.291 406.648 Z"/>
    <path d="M 414.893 281.841 C 413.809 281.841 412.72 280.981 411.926 279.473 C 411.176 278.056 410.716 276.008 410.716 273.952 C 410.716 271.83 411.172 269.774 411.926 268.348 C 413.514 265.35 416.311 265.432 417.86 268.348 C 418.61 269.765 419.07 271.813 419.07 273.952 C 419.07 276.008 418.614 278.056 417.816 279.473 C 417.062 280.981 415.982 281.841 414.893 281.841 Z"/>
    <path d="M 422.698 252.564 C 420.816 250.041 420.356 245.142 421.692 241.603 C 423.028 238.055 425.66 237.195 427.538 239.718 C 429.42 242.241 429.837 247.214 428.501 250.762 C 427.707 252.883 426.415 254.079 425.118 254.079 C 424.285 254.063 423.409 253.588 422.698 252.564 Z M 433.224 225.275 C 431.424 222.596 431.138 217.623 432.6 214.231 C 434.061 210.832 436.69 210.291 438.489 212.97 C 440.289 215.731 440.537 220.695 439.114 224.095 C 438.277 226.069 437.067 227.011 435.861 227.011 C 434.933 227.011 434.013 226.454 433.224 225.275 Z M 444.796 199.558 C 443.208 196.396 443.208 191.431 444.878 188.351 C 446.509 185.353 449.181 185.353 450.768 188.507 C 452.399 191.587 452.355 196.633 450.725 199.632 L 450.681 199.632 C 449.888 201.131 448.847 201.917 447.801 201.917 C 446.713 201.917 445.624 201.123 444.796 199.558 Z M 458.154 177.069 C 456.9 173.358 457.442 168.467 459.364 166.182 C 461.285 163.74 463.874 164.838 465.128 168.467 C 466.386 172.097 465.839 176.987 463.918 179.355 C 463.207 180.215 462.413 180.617 461.663 180.617 C 460.288 180.617 458.948 179.355 458.154 177.069 Z M 473.776 160.734 C 473.108 156.556 474.361 152.132 476.573 150.87 C 478.746 149.609 481.084 151.976 481.752 156.162 C 482.42 160.341 481.166 164.764 478.998 166.026 C 478.577 166.182 478.161 166.345 477.788 166.345 C 475.992 166.345 474.322 164.125 473.776 160.734 Z"/>
    <path d="M 495.412 161.438 C 494.328 161.438 493.239 160.644 492.489 159.153 C 491.695 157.735 491.231 155.687 491.231 153.549 C 491.231 151.493 491.695 149.445 492.489 148.028 C 494.033 145.111 496.792 145.029 498.379 147.946 C 499.173 149.445 499.589 151.493 499.589 153.549 C 499.589 155.671 499.173 157.727 498.379 159.153 C 497.585 160.644 496.536 161.438 495.412 161.438 Z"/>
    <path d="M 1.671 262.924 L 495.434 262.924 L 495.434 270.813 L 1.671 270.813 Z"/>
    <path d="M 250.7 231.009 C 229.658 231.009 212.53 248.203 212.53 269.34 C 212.53 290.472 229.652 307.672 250.7 307.672 C 271.743 307.672 288.871 290.478 288.871 269.34 C 288.871 248.209 271.743 231.009 250.7 231.009 Z" style="" bx:origin="0.629 1.215"/>
    <path d="M 249.701 132.522 C 231.065 190.148 205.874 252.623 173.259 252.623 L 169.677 252.861 C 135.956 249.404 117.046 197.168 97.073 141.969 C 81.399 98.665 89.219 154.979 87.13 124.886 C 90.581 132.228 82.791 127.852 80.73 134.741 C 101.093 154.845 71.835 114.163 86.729 155.322 C 108.328 214.995 130.659 276.7 173.259 276.7 L 179.522 276.274 L 179.522 275.668 C 216.717 268.475 243.594 198.143 263.086 136.455 C 263.48 135.201 263.723 133.866 263.853 132.498 L 249.701 132.514 L 249.701 132.522 Z" transform="matrix(-1, 0, 0, -1, 344.582993, 401.568283)"/>
    <path d="M 413.071 264.368 C 394.435 321.994 369.244 384.469 336.629 384.469 L 333.047 384.707 C 299.326 381.25 280.416 329.014 260.443 273.815 C 244.769 230.511 252.589 286.825 250.5 256.732 C 253.951 264.074 246.161 259.698 244.1 266.587 C 264.463 286.691 235.205 246.009 250.099 287.168 C 271.698 346.841 294.029 408.546 336.629 408.546 L 342.892 408.12 L 342.892 407.514 C 380.087 400.321 406.964 329.989 426.456 268.301 C 426.85 267.047 427.093 265.712 427.223 264.344 L 413.071 264.36 L 413.071 264.368 Z"/>
  </g>
</svg>