<?xml version="1.0" encoding="utf-8"?>
<svg viewBox="0 0 512 512" width="512" height="512" fill="#000000" xmlns="http://www.w3.org/2000/svg">
  <path d="M 164.68 39.813 C 193.594 27.586 224.321 21.383 256 21.383 C 287.679 21.383 318.406 27.586 347.313 39.813 C 375.251 51.633 400.344 68.547 421.899 90.102 C 427.219 95.43 432.251 100.977 437.008 106.719 L 383.969 106.719 C 378.078 106.719 373.305 111.492 373.305 117.383 C 373.305 123.274 378.078 128.047 383.969 128.047 L 458.36 128.047 C 459.094 128.047 459.813 127.977 460.508 127.836 C 460.641 127.805 460.766 127.766 460.899 127.734 C 461.11 127.679 461.321 127.632 461.532 127.57 C 461.571 127.554 461.61 127.539 461.649 127.523 C 465.547 126.265 468.454 122.82 468.946 118.632 C 468.993 118.218 469.024 117.804 469.024 117.382 L 469.024 42.711 C 469.024 36.82 464.251 32.047 458.36 32.047 C 452.469 32.047 447.696 36.82 447.696 42.711 L 447.696 86.414 C 400.805 33.445 332.305 0.055 256 0.055 C 115.023 0.055 0.617 115.172 0 256 C 0 261.891 4.773 266.664 10.664 266.664 C 16.555 266.664 21.383 261.891 21.383 256 C 21.383 224.32 27.586 193.594 39.813 164.687 C 51.626 136.749 68.547 111.656 90.102 90.101 C 111.657 68.546 136.75 51.633 164.68 39.813 Z"/>
  <path d="M 501.336 245.336 C 495.445 245.336 490.617 250.109 490.617 256 C 490.617 287.68 484.414 318.406 472.187 347.32 C 460.374 375.25 443.453 400.343 421.898 421.898 C 400.343 443.453 375.25 460.367 347.32 472.187 C 318.406 484.414 287.679 490.617 256 490.617 C 224.321 490.617 193.594 484.414 164.687 472.187 C 136.749 460.367 111.656 443.453 90.101 421.898 C 84.781 416.57 79.742 411.023 74.992 405.281 L 128.031 405.281 C 133.922 405.281 138.695 400.508 138.695 394.617 C 138.695 388.726 133.922 383.953 128.031 383.953 L 53.641 383.953 C 52.907 383.953 52.188 384.023 51.493 384.164 C 51.36 384.195 51.235 384.234 51.102 384.266 C 50.891 384.321 50.672 384.368 50.469 384.43 C 50.43 384.446 50.391 384.461 50.352 384.477 C 46.454 385.743 43.547 389.18 43.055 393.368 C 43.008 393.782 42.977 394.196 42.977 394.618 L 42.977 469.29 C 42.977 475.181 47.75 479.954 53.641 479.954 C 59.532 479.954 64.305 475.181 64.305 469.29 L 64.305 425.587 C 111.196 478.556 179.696 511.946 256 511.946 C 396.977 511.946 511.383 396.829 512 256.001 C 512 250.109 507.227 245.336 501.336 245.336 Z"/>
  <text style="fill: rgb(51, 51, 51); font-family: Arial, sans-serif; font-size: 100px; font-weight: 700; text-transform: uppercase; white-space: pre;" x="432.63" y="508.876">M</text>
  <g style="" transform="matrix(2.607846, 0, 0, 2.612956, -343.14093, -360.675842)">
    <g transform="matrix(0.702145, 0.712034, -0.712034, 0.702145, 230.208862, 166.028641)">
      <path d="M99.6,19.9L94.8,15L85,5.2l-4.9-4.9c-0.5-0.5-1.2-0.5-1.7,0l-9.8,9.8c-0.5,0.5-0.5,1.2,0,1.7l1.5,1.5l-3.3,3.3   c-0.1,0.1-0.1,0.1-0.1,0.2c-5.1-2.6-10.8-4-16.7-4c-9.9,0-19.2,3.9-26.2,10.9c-7,7-10.9,16.3-10.9,26.2c0,5.9,1.4,11.6,4,16.7   c-0.1,0-0.1,0.1-0.2,0.1l-3.3,3.3l-1.5-1.5c-0.5-0.5-1.2-0.5-1.7,0l-9.8,9.8c-0.5,0.5-0.5,1.2,0,1.7L5.2,85l9.8,9.8l4.9,4.9   c0.2,0.2,0.6,0.4,0.9,0.4c0.3,0,0.6-0.1,0.9-0.4l9.8-9.8c0.5-0.5,0.5-1.2,0-1.7l-1.5-1.5l3.3-3.3c0.1-0.1,0.1-0.1,0.1-0.2   c5.2,2.6,11,4,16.7,4c9.5,0,19-3.6,26.2-10.8c7-7,10.9-16.3,10.9-26.2c0-5.9-1.4-11.6-4-16.7c0.1,0,0.1-0.1,0.2-0.1l3.3-3.3   l1.5,1.5c0.2,0.2,0.6,0.4,0.9,0.4c0.3,0,0.6-0.1,0.9-0.4l9.8-9.8C100.1,21.1,100.1,20.3,99.6,19.9z M92.2,15.9l-8,8l-8-8l8-8   L92.2,15.9z M79.3,2.9l3.2,3.2l-8,8L71.2,11L79.3,2.9z M11,71.2l1.5,1.5c0,0,0,0,0,0l1.6,1.6l-8,8l-3.2-3.2L11,71.2z M7.8,84.1l8-8   l8,8l-8,8L7.8,84.1z M20.7,97.1l-3.2-3.2l8-8l1.6,1.6l0,0l1.5,1.5L20.7,97.1z M28.1,84.9l-1.6-1.6l-9.8-9.8l-1.6-1.6l3-3   c1.6,2.6,3.4,5.1,5.6,7.3c2.2,2.2,4.7,4.1,7.3,5.6L28.1,84.9z M74.5,74.5C61,88,39,88,25.5,74.5C19,68,15.3,59.3,15.3,50   S19,32,25.5,25.5S40.7,15.3,50,15.3S68,19,74.5,25.5C81,32,84.7,40.7,84.7,50S81,68,74.5,74.5z M81.9,31.1   c-1.6-2.6-3.4-5.1-5.6-7.3c-2.2-2.2-4.7-4.1-7.3-5.6l3-3l13,13L81.9,31.1z M89,28.8l-3.2-3.2l8-8l3.2,3.2L89,28.8z"/>
      <path d="M59.7,30.7c-2.8-2.8-7.6-2.8-10.3,0L30.7,49.4c-2.9,2.9-2.9,7.5,0,10.3l1.1,1.1C33.2,62.2,35,63,37,63c2,0,3.8-0.8,5.2-2.1   l18.7-18.7c1.4-1.4,2.1-3.2,2.1-5.2c0-2-0.8-3.8-2.1-5.2L59.7,30.7z M59.1,40.4L40.4,59.1c-1.8,1.8-5.1,1.8-6.9,0L32.4,58   c-1.9-1.9-1.9-5,0-6.9l18.7-18.7c0.9-0.9,2.1-1.4,3.4-1.4c1.3,0,2.5,0.5,3.4,1.4l1.1,1.1c0.9,0.9,1.4,2.1,1.4,3.4   C60.6,38.3,60.1,39.5,59.1,40.4z"/>
      <path d="M29.6,29.6c-5.4,5.4-8.4,12.7-8.4,20.4c0,7.7,3,14.9,8.4,20.4s12.7,8.4,20.4,8.4s14.9-3,20.4-8.4s8.4-12.7,8.4-20.4   c0-7.7-3-14.9-8.4-20.4C59.1,18.4,40.9,18.4,29.6,29.6z M68.6,68.6c-5,5-11.6,7.7-18.6,7.7s-13.7-2.7-18.6-7.7   c-5-5-7.7-11.6-7.7-18.6c0-7,2.7-13.7,7.7-18.6c5.1-5.1,11.9-7.7,18.6-7.7s13.5,2.6,18.6,7.7c5,5,7.7,11.6,7.7,18.6   C76.4,57,73.6,63.7,68.6,68.6z"/>
      <ellipse transform="matrix(0.7071 -0.7071 0.7071 0.7071 -16.8119 62.6688)" cx="67.2" cy="51.6" rx="2.8" ry="2.8"/>
      <ellipse transform="matrix(0.7071 -0.7071 0.7071 0.7071 -26.5688 58.6277)" cx="57.5" cy="61.4" rx="2.8" ry="2.8"/>
      <ellipse transform="matrix(0.7071 -0.7071 0.7071 0.7071 -32.4219 56.195)" cx="51.6" cy="67.2" rx="2.8" ry="2.8"/>
    </g>
  </g>
</svg>