<?xml version="1.0" encoding="utf-8"?>
<svg viewBox="0 0 500 500" width="500" height="500" xmlns="http://www.w3.org/2000/svg">
  <g transform="matrix(-1, 0, 0, -1, 498.403015, 478.45401)">
    <path d="M 413.743 237.907 C 412.658 237.907 411.57 237.112 410.82 235.621 C 410.026 234.122 409.566 232.156 409.566 230.018 C 409.566 227.961 410.022 225.913 410.82 224.496 C 412.364 221.498 415.122 221.498 416.709 224.414 C 417.503 225.913 417.919 227.961 417.919 230.018 C 417.919 232.066 417.499 234.122 416.709 235.621 C 415.955 237.129 414.871 237.907 413.743 237.907 Z" transform="matrix(-1, 0, 0, -1, 827.485016, 460.14415)"/>
    <path d="M 419.963 204.619 C 419.295 200.441 420.548 196.017 422.76 194.756 C 424.933 193.494 427.271 195.862 427.939 200.04 C 428.607 204.218 427.397 208.642 425.185 209.903 C 424.764 210.141 424.348 210.223 423.975 210.223 C 422.179 210.223 420.505 208.011 419.963 204.619 Z M 436.592 192.314 C 435.334 188.612 435.88 183.794 437.802 181.427 C 439.762 179.059 442.356 180.083 443.605 183.712 C 444.863 187.342 444.316 192.232 442.351 194.6 C 441.64 195.477 440.846 195.862 440.096 195.862 C 438.721 195.862 437.377 194.6 436.592 192.314 Z M 450.957 172.276 C 449.326 169.114 449.369 164.149 451.039 161.069 L 451.039 161.151 C 452.67 158.07 455.342 158.152 456.929 161.232 C 458.56 164.395 458.516 169.359 456.886 172.44 C 456.049 173.939 455.003 174.652 453.962 174.652 C 452.874 174.635 451.794 173.849 450.957 172.276 Z M 463.275 147.74 C 461.483 145.061 461.188 140.089 462.65 136.697 C 464.068 133.297 466.705 132.756 468.496 135.517 C 470.296 138.196 470.583 143.169 469.121 146.561 C 468.327 148.535 467.117 149.477 465.859 149.477 C 464.949 149.477 464.029 148.92 463.275 147.74 Z M 474.217 121.074 C 472.296 118.551 471.875 113.578 473.22 110.03 C 474.555 106.475 477.149 105.689 479.066 108.212 C 480.901 110.735 481.365 115.634 480.029 119.173 C 479.235 121.295 477.943 122.491 476.603 122.491 C 475.765 122.491 474.928 122.016 474.217 121.074 Z" transform="matrix(-1, 0, 0, -1, 900.57962, 316.960823)"/>
    <path d="M 494.262 117.547 C 493.173 117.547 492.089 116.752 491.295 115.261 C 490.545 113.844 490.085 111.796 490.085 109.74 C 490.085 107.618 490.541 105.562 491.295 104.136 C 492.839 101.22 495.637 101.138 497.229 104.136 C 497.979 105.553 498.439 107.601 498.439 109.74 C 498.439 111.796 497.975 113.844 497.229 115.261 C 496.431 116.761 495.342 117.547 494.262 117.547 Z" transform="matrix(-1, 0, 0, -1, 988.523987, 219.465141)"/>
    <path d="M 84.66 242.436 C 83.576 242.436 82.487 241.576 81.693 240.068 C 80.943 238.651 80.483 236.603 80.483 234.547 C 80.483 232.425 80.939 230.369 81.693 228.943 C 83.281 225.945 86.078 226.027 87.627 228.943 C 88.377 230.36 88.837 232.408 88.837 234.547 C 88.837 236.603 88.381 238.651 87.583 240.068 C 86.829 241.576 85.749 242.436 84.66 242.436 Z" transform="matrix(-1, 0, 0, -1, 169.32, 469.161148)"/>
    <path d="M 19.393 356.52 C 17.511 353.997 17.051 349.098 18.387 345.559 C 19.723 342.011 22.355 341.151 24.233 343.674 C 26.115 346.197 26.532 351.17 25.196 354.718 C 24.402 356.839 23.11 358.035 21.813 358.035 C 20.98 358.019 20.104 357.544 19.393 356.52 Z M 29.919 329.231 C 28.119 326.552 27.833 321.579 29.295 318.187 C 30.756 314.788 33.385 314.247 35.184 316.926 C 36.984 319.687 37.232 324.651 35.809 328.051 C 34.972 330.025 33.762 330.967 32.556 330.967 C 31.628 330.967 30.708 330.41 29.919 329.231 Z M 41.491 303.514 C 39.903 300.352 39.903 295.387 41.573 292.307 C 43.204 289.309 45.876 289.309 47.463 292.463 C 49.094 295.543 49.05 300.589 47.42 303.588 L 47.376 303.588 C 46.583 305.087 45.542 305.873 44.496 305.873 C 43.408 305.873 42.319 305.079 41.491 303.514 Z M 54.849 281.025 C 53.595 277.314 54.137 272.423 56.059 270.138 C 57.98 267.696 60.569 268.794 61.823 272.423 C 63.081 276.053 62.534 280.943 60.613 283.311 C 59.902 284.171 59.108 284.573 58.358 284.573 C 56.983 284.573 55.643 283.311 54.849 281.025 Z M 70.471 264.69 C 69.803 260.512 71.056 256.088 73.268 254.826 C 75.441 253.565 77.779 255.932 78.447 260.118 C 79.115 264.297 77.861 268.72 75.693 269.982 C 75.272 270.138 74.856 270.301 74.483 270.301 C 72.687 270.301 71.017 268.081 70.471 264.69 Z" transform="matrix(-1, 0, 0, -1, 96.24799, 612.52211)"/>
    <path d="M 4.145 362.767 C 3.061 362.767 1.972 361.973 1.222 360.482 C 0.428 359.064 -0.036 357.016 -0.036 354.878 C -0.036 352.822 0.428 350.774 1.222 349.357 C 2.766 346.44 5.525 346.358 7.112 349.275 C 7.906 350.774 8.322 352.822 8.322 354.878 C 8.322 357 7.906 359.056 7.112 360.482 C 6.318 361.973 5.269 362.767 4.145 362.767 Z" transform="matrix(-1, 0, 0, -1, 8.286001, 709.894806)"/>
    <path d="M 4.119 237.753 L 497.882 237.753 L 497.882 245.642 L 4.119 245.642 Z" transform="matrix(-1, 0, 0, -1, 502.001, 483.395004)"/>
    <path d="M 412.782 241.712 C 392.849 264.568 378.766 302.318 366.705 336.054 L 381.937 336.054 C 393.3 305.456 404.516 279.716 418.04 263.347 C 415.685 256.834 413.911 249.527 412.783 241.712 Z" transform="matrix(-1, 0, 0, -1, 784.744995, 577.765991)"/>
    <path d="M 287.743 197.983 C 269.107 255.609 243.916 318.084 211.301 318.084 L 207.719 318.322 C 173.998 314.865 155.088 262.629 135.115 207.43 C 119.441 164.126 103.35 119.878 79.461 97.521 C 78.693 105.566 77.232 113.144 75.171 120.033 C 95.534 140.137 109.877 179.624 124.771 220.783 C 146.37 280.456 168.701 342.161 211.301 342.161 L 217.564 341.735 L 217.564 341.129 C 254.759 333.936 281.636 263.604 301.128 201.916 C 301.522 200.662 301.765 199.327 301.895 197.959 L 287.743 197.975 Z" transform="matrix(-1, 0, 0, -1, 377.065994, 439.682022)"/>
    <path d="M 335.943 304.27 C 314.901 304.27 297.773 321.464 297.773 342.601 C 297.773 363.733 314.895 380.933 335.943 380.933 C 356.986 380.933 374.114 363.739 374.114 342.601 C 374.114 321.47 356.986 304.27 335.943 304.27 Z" style="" transform="matrix(-1, 0, 0, -1, 671.887024, 685.203003)"/>
  </g>
</svg>