<?xml version="1.0" standalone="no"?>
<!DOCTYPE svg PUBLIC "-//W3C//DTD SVG 20010904//EN"
 "http://www.w3.org/TR/2001/REC-SVG-20010904/DTD/svg10.dtd">
<svg version="1.0" xmlns="http://www.w3.org/2000/svg"
 width="356.000000pt" height="960.000000pt" viewBox="0 0 356.000000 960.000000"
 preserveAspectRatio="xMidYMid meet">
<metadata>
Created by potrace 1.13, written by Peter Selinger 2001-2015
</metadata>
<g transform="translate(0.000000,960.000000) scale(0.100000,-0.100000)"
fill="#000000" stroke="none">
<path d="M2519 8413 c-8 -16 -24 -44 -37 -63 -13 -19 -31 -51 -40 -70 -9 -19
-19 -37 -23 -40 -3 -3 -19 -27 -33 -55 -15 -27 -36 -63 -47 -80 -10 -16 -23
-39 -29 -50 -6 -11 -19 -33 -30 -50 -11 -16 -24 -39 -30 -50 -6 -11 -19 -33
-30 -50 -11 -16 -23 -37 -27 -45 -4 -8 -20 -34 -35 -56 -15 -23 -28 -47 -28
-53 0 -6 -4 -11 -8 -11 -5 0 -15 -12 -23 -27 -8 -16 -26 -47 -41 -69 -16 -23
-28 -46 -28 -51 0 -6 -9 -18 -20 -28 -11 -10 -20 -22 -20 -26 0 -4 -22 -42
-50 -83 -27 -42 -50 -79 -50 -84 0 -5 -9 -17 -20 -27 -11 -10 -20 -23 -20 -30
0 -7 -9 -20 -20 -30 -11 -10 -20 -21 -20 -25 0 -5 -51 -83 -112 -175 -62 -92
-118 -175 -124 -186 -6 -10 -18 -27 -27 -37 -10 -10 -17 -24 -17 -30 0 -7 -4
-12 -8 -12 -5 0 -18 -17 -31 -37 -12 -21 -36 -56 -52 -78 -16 -22 -40 -56 -53
-75 -13 -19 -31 -41 -40 -49 -9 -7 -16 -20 -16 -27 0 -8 -3 -14 -7 -14 -5 0
-19 -17 -33 -38 -13 -20 -36 -51 -50 -68 -14 -17 -34 -44 -45 -60 -11 -15 -35
-47 -52 -71 -18 -24 -33 -47 -33 -52 0 -5 -4 -11 -9 -13 -4 -1 -21 -23 -37
-47 -16 -24 -46 -69 -66 -100 -21 -31 -42 -65 -47 -76 -5 -12 -16 -27 -25 -34
-9 -7 -16 -18 -16 -23 0 -5 -13 -28 -28 -51 -15 -23 -34 -55 -42 -72 -8 -16
-19 -37 -26 -45 -11 -14 -144 -268 -146 -280 -2 -7 -35 -84 -60 -140 -11 -25
-21 -49 -23 -55 -1 -5 -7 -23 -13 -38 -7 -16 -12 -30 -12 -32 0 -2 -5 -16 -12
-32 -6 -15 -13 -37 -15 -47 -2 -11 -8 -25 -14 -33 -6 -7 -9 -13 -6 -13 4 0 -1
-19 -9 -42 -18 -51 -70 -248 -78 -298 -3 -19 -8 -48 -12 -65 -23 -117 -31
-242 -29 -440 2 -121 5 -233 8 -250 5 -32 15 -94 23 -135 2 -14 7 -41 10 -60
3 -19 15 -69 26 -110 11 -41 21 -82 23 -90 2 -8 4 -15 5 -15 1 0 3 -8 5 -17 6
-31 57 -183 65 -193 5 -5 8 -12 8 -15 1 -3 5 -18 11 -33 6 -16 11 -31 11 -33
0 -3 8 -24 19 -47 10 -23 29 -67 42 -97 33 -75 158 -321 173 -340 6 -8 22 -35
36 -60 13 -25 41 -71 62 -103 21 -32 38 -62 38 -66 0 -4 9 -16 20 -26 11 -10
20 -23 20 -30 0 -6 8 -20 18 -31 9 -11 22 -27 27 -36 27 -43 101 -147 129
-180 17 -20 47 -58 66 -84 19 -26 58 -72 85 -103 l50 -56 0 195 c1 173 5 263
20 380 2 19 7 59 10 89 4 30 8 62 10 72 2 9 6 39 10 66 4 26 11 62 15 78 5 17
11 46 14 65 3 19 22 98 41 175 20 77 38 147 40 155 2 8 4 16 5 18 2 1 4 7 5
12 1 6 4 12 5 15 1 3 4 10 5 15 1 6 3 11 5 13 1 1 3 10 5 20 2 10 7 26 11 35
4 9 8 20 9 25 2 4 4 9 5 12 1 3 3 8 5 13 1 4 5 14 8 22 8 19 51 133 52 140 16
62 207 446 285 570 13 20 72 118 85 138 6 10 31 49 58 89 26 40 47 74 47 77 0
3 14 25 30 49 17 25 30 47 30 50 0 4 12 25 28 49 15 24 33 52 40 63 7 11 22
38 33 60 11 22 38 72 59 110 63 111 270 534 270 551 0 3 11 30 25 60 14 30 25
60 25 67 0 7 4 17 9 23 10 10 126 360 137 414 4 19 9 40 10 45 2 11 11 54 19
99 4 16 8 33 10 37 3 4 7 24 10 45 4 22 10 53 15 69 5 17 11 57 15 90 3 33 8
74 11 90 24 173 24 542 0 740 -12 95 -17 133 -21 155 -3 14 -8 41 -11 60 -9
58 -12 73 -24 125 -6 28 -14 60 -16 72 -2 12 -9 34 -14 48 -5 14 -8 25 -5 25
2 0 -5 26 -16 58 -11 31 -19 58 -19 60 0 1 0 3 -1 5 0 1 -2 10 -4 19 -5 29
-47 152 -55 163 -4 6 -15 35 -25 65 -10 30 -32 84 -49 120 -16 36 -30 67 -31
70 -1 13 -60 130 -65 130 -4 0 -13 -12 -21 -27z"/>
<path d="M2784 4839 c-3 -5 -2 -9 2 -9 4 0 -3 -12 -17 -26 -13 -14 -19 -24
-14 -22 6 2 10 -1 10 -7 0 -5 -3 -9 -7 -7 -5 1 -7 -4 -5 -10 1 -7 -3 -12 -10
-11 -6 1 -17 -4 -23 -12 -7 -8 -9 -15 -5 -15 5 0 0 -9 -11 -21 -10 -11 -13
-19 -7 -17 6 2 11 -1 11 -7 0 -5 -4 -9 -10 -7 -5 1 -7 -2 -4 -7 4 -5 2 -12 -4
-16 -5 -3 -10 0 -10 7 0 7 -6 4 -12 -7 -14 -23 -19 -45 -10 -42 4 1 7 -2 7 -8
0 -5 -3 -9 -7 -8 -5 2 -7 0 -5 -5 1 -4 -2 -7 -8 -7 -5 0 -9 4 -7 8 1 5 -2 5
-8 2 -6 -4 -9 -9 -6 -12 2 -3 -2 -12 -10 -21 -8 -10 -14 -21 -15 -27 0 -5 -8
-18 -17 -28 -9 -10 -11 -17 -5 -15 6 2 11 -1 11 -7 0 -5 -4 -9 -10 -7 -5 1 -7
-2 -4 -7 4 -5 2 -12 -4 -16 -5 -3 -10 0 -10 7 0 7 -6 4 -12 -7 -7 -11 -10 -21
-7 -21 2 -1 -5 -12 -16 -24 -11 -12 -14 -20 -8 -18 6 2 11 -1 11 -7 0 -5 -4
-9 -9 -7 -5 1 -8 -4 -7 -10 2 -7 -2 -12 -9 -11 -6 1 -17 -4 -23 -12 -7 -8 -9
-15 -5 -15 5 0 0 -9 -11 -21 -10 -11 -13 -19 -7 -17 6 2 11 -1 11 -7 0 -5 -4
-9 -9 -7 -5 1 -8 -3 -7 -10 2 -7 -3 -12 -9 -13 -7 0 -12 -3 -10 -7 1 -3 -9
-18 -23 -33 -14 -15 -20 -25 -14 -23 7 2 12 -1 12 -7 0 -5 -4 -9 -9 -7 -5 1
-8 -4 -7 -10 2 -7 -3 -12 -10 -10 -8 1 -11 -2 -8 -6 3 -5 -3 -17 -14 -27 -15
-14 -17 -21 -9 -32 10 -12 6 -17 -13 -15 -3 1 -12 -5 -18 -13 -7 -8 -9 -15 -5
-15 4 0 1 -7 -6 -17 -8 -9 -14 -26 -14 -37 -1 -12 -7 -20 -14 -18 -7 1 -10 -2
-7 -6 3 -5 -3 -17 -14 -27 -14 -13 -17 -22 -9 -31 7 -8 7 -14 -1 -19 -5 -3
-10 -1 -10 6 0 16 -11 5 -14 -14 -1 -8 -8 -22 -14 -30 -9 -10 -10 -17 -2 -22
6 -3 8 -11 4 -16 -3 -5 -9 -7 -14 -4 -4 3 -13 -2 -20 -10 -7 -8 -9 -15 -5 -15
5 0 0 -9 -11 -21 -10 -11 -14 -19 -9 -17 6 2 11 -1 13 -7 1 -5 -2 -10 -8 -10
-5 0 -10 -4 -11 -10 0 -5 -7 -17 -15 -27 -11 -11 -12 -18 -4 -23 14 -9 2 -27
-13 -19 -7 4 -9 3 -4 -1 4 -5 -1 -17 -10 -27 -10 -11 -13 -18 -8 -16 6 2 11
-1 13 -7 1 -5 -4 -10 -10 -10 -7 0 -13 -4 -13 -10 0 -5 -4 -16 -8 -23 -5 -7
-5 -11 0 -10 4 2 9 -1 11 -7 1 -5 -2 -10 -7 -10 -5 0 -13 -4 -17 -8 -10 -10
-14 -37 -6 -34 4 1 7 -2 7 -8 0 -5 -3 -9 -7 -8 -5 2 -7 -3 -5 -10 1 -6 -4 -11
-11 -9 -8 1 -11 -2 -8 -7 4 -5 2 -13 -4 -16 -8 -5 -7 -11 1 -21 11 -13 6 -18
-14 -15 -5 1 -6 -3 -3 -8 4 -5 2 -13 -4 -16 -8 -5 -7 -11 1 -21 10 -12 6 -18
-12 -16 -3 1 -6 -5 -6 -13 0 -8 3 -13 6 -12 3 1 7 -2 9 -8 1 -5 -2 -10 -7 -10
-5 0 -13 -4 -17 -8 -10 -10 -14 -37 -6 -34 4 1 8 -2 10 -8 1 -5 -2 -10 -8 -10
-5 0 -10 -4 -10 -10 0 -5 5 -10 10 -10 6 0 10 -4 9 -10 -1 -5 -5 -9 -10 -7 -5
1 -8 -4 -7 -10 2 -7 -3 -12 -10 -10 -8 1 -11 -2 -8 -7 4 -5 2 -13 -4 -16 -8
-5 -7 -11 1 -21 11 -13 6 -18 -14 -15 -5 1 -6 -3 -3 -8 4 -5 2 -12 -3 -15 -13
-8 -7 -41 7 -41 7 0 11 -4 10 -10 -2 -5 -6 -9 -11 -7 -4 1 -6 -4 -5 -10 2 -7
-3 -12 -10 -10 -8 1 -11 -2 -8 -7 4 -5 2 -13 -4 -16 -8 -5 -7 -11 1 -21 10
-12 6 -18 -12 -16 -3 1 -6 -5 -6 -13 0 -8 3 -13 6 -12 3 1 6 -2 6 -8 0 -5 -4
-9 -8 -7 -5 1 -6 -2 -3 -7 4 -5 2 -13 -4 -16 -8 -5 -7 -11 1 -21 10 -12 6 -18
-12 -16 -3 1 -6 -5 -6 -13 0 -8 3 -13 6 -12 3 1 6 -2 6 -8 0 -5 -4 -8 -10 -7
-5 2 -7 0 -3 -4 4 -4 3 -13 -3 -20 -7 -8 -7 -14 1 -19 8 -5 6 -13 -7 -27 -9
-11 -13 -18 -8 -16 6 2 10 -1 10 -7 0 -5 -3 -9 -6 -8 -3 1 -6 -4 -6 -12 0 -8
3 -13 6 -12 3 1 6 -2 6 -8 0 -5 -4 -9 -8 -7 -5 1 -6 -2 -3 -7 4 -5 2 -13 -4
-16 -8 -5 -8 -11 0 -20 7 -9 6 -16 -5 -25 -13 -11 -18 -61 -5 -57 3 1 6 -2 8
-8 1 -5 -3 -10 -10 -10 -14 0 -19 -73 -6 -81 5 -3 3 -13 -4 -21 -12 -15 -20
-64 -9 -60 3 1 6 -2 6 -8 0 -5 -3 -9 -6 -8 -3 1 -6 -4 -6 -12 0 -8 3 -13 6
-12 3 1 6 -2 6 -8 0 -5 -4 -9 -8 -7 -5 1 -6 -2 -3 -7 4 -5 2 -13 -4 -16 -8 -5
-8 -11 0 -20 8 -10 8 -15 0 -20 -8 -5 -8 -10 0 -20 6 -7 7 -16 2 -19 -8 -4 -9
-50 -2 -66 1 -3 2 -8 1 -13 0 -4 2 -6 6 -5 5 2 8 -1 8 -7 0 -5 -2 -9 -5 -8
-12 4 -4 -85 9 -100 12 -16 8 -22 -12 -18 -5 1 -5 -4 0 -11 4 -7 8 -26 8 -43
0 -17 5 -30 13 -30 6 0 11 -4 10 -10 -2 -5 -6 -9 -9 -8 -3 1 -6 -4 -6 -12 0
-8 4 -12 8 -9 4 2 10 0 13 -5 4 -5 2 -12 -3 -15 -13 -8 -7 -41 7 -41 7 0 11
-4 10 -10 -2 -5 -6 -9 -9 -8 -3 1 -6 -4 -6 -12 0 -8 3 -13 6 -12 3 1 6 -2 6
-8 0 -5 -4 -9 -10 -7 -5 2 -1 -5 8 -16 13 -14 15 -22 7 -27 -8 -5 -8 -11 -1
-19 6 -7 7 -16 3 -20 -4 -4 0 -6 8 -4 8 2 14 -3 12 -10 -1 -6 1 -11 5 -10 5 2
9 -1 11 -7 1 -5 -2 -10 -8 -10 -5 0 -10 -4 -10 -10 0 -5 5 -10 10 -10 6 0 10
-4 9 -10 -1 -5 -4 -9 -8 -8 -4 1 -8 -4 -8 -12 0 -8 3 -14 6 -13 18 2 22 -4 12
-16 -8 -9 -8 -16 -2 -20 6 -4 8 -13 4 -22 -3 -8 2 -23 11 -33 9 -10 13 -21 9
-25 -5 -4 -3 -6 4 -4 6 2 11 -1 11 -7 0 -5 -4 -9 -10 -7 -5 1 -6 -3 -1 -10 4
-7 8 -17 8 -23 0 -5 7 -10 15 -10 8 -1 14 -6 13 -11 -1 -6 4 -11 11 -11 7 0
13 6 13 13 0 7 -3 12 -6 11 -3 -1 -6 3 -6 8 0 5 3 9 7 8 5 -2 7 3 5 10 -1 6 4
11 11 9 8 -1 11 2 8 7 -4 5 -2 12 3 15 5 4 8 14 6 24 -1 9 2 23 8 30 6 7 6 12
1 10 -5 -2 -9 2 -9 7 0 5 4 9 8 7 5 -1 6 2 3 7 -4 5 -2 13 4 16 8 5 7 11 -1
21 -10 12 -6 18 12 16 3 -1 6 5 6 13 0 8 -3 13 -6 12 -3 -1 -7 3 -8 8 -2 6 3
10 10 10 6 0 13 6 13 13 1 6 3 14 4 17 1 3 3 13 4 23 1 9 5 22 9 29 4 6 3 14
-3 18 -6 4 -8 11 -4 16 3 5 10 6 16 3 6 -4 8 -2 4 4 -3 6 -2 14 4 17 8 5 7 11
-1 21 -11 13 -6 18 14 15 5 -1 6 3 3 8 -4 5 -2 13 4 16 8 5 7 11 -1 21 -10 12
-6 18 12 16 3 -1 6 5 6 13 0 8 -4 13 -8 12 -4 -1 -7 3 -7 8 0 6 4 9 9 7 5 -1
8 4 7 10 -2 7 3 12 10 10 6 -1 12 5 12 13 0 8 -4 14 -9 13 -5 -2 -9 2 -9 7 0
6 4 9 9 7 5 -1 8 4 7 10 -2 7 3 12 10 10 8 -1 11 2 8 7 -4 5 -2 13 4 16 8 5 7
11 -1 21 -11 13 -6 18 14 15 5 -1 6 3 3 8 -4 5 -2 13 4 16 8 5 7 11 -1 21 -11
13 -5 19 16 14 6 -1 7 2 2 6 -4 4 0 16 10 26 9 10 13 18 8 18 -4 0 -2 7 5 15
7 8 9 15 5 15 -5 0 0 9 9 19 12 13 14 21 6 26 -5 3 -8 11 -4 16 3 5 9 7 13 5
4 -3 8 1 8 9 0 8 -4 13 -8 12 -4 -1 -7 3 -7 8 0 6 4 9 9 7 5 -1 8 3 7 10 -2 7
2 12 9 13 14 0 42 25 28 25 -4 0 0 9 11 21 10 11 14 19 9 17 -6 -2 -11 2 -12
7 -2 6 1 10 6 10 6 0 16 6 22 13 7 6 9 12 4 12 -4 0 0 9 11 21 10 11 14 19 9
17 -6 -2 -10 2 -10 7 0 6 3 9 8 7 4 -1 6 4 5 10 -2 7 2 12 8 11 6 -1 11 4 11
12 0 8 -3 13 -6 12 -3 -1 -6 3 -6 8 0 6 3 9 8 7 4 -1 6 1 5 5 -2 5 2 8 7 8 6
0 9 -4 7 -8 -1 -5 2 -6 8 -2 8 5 7 11 -1 21 -11 14 -10 15 11 18 6 0 9 4 8 7
-2 4 6 17 17 29 11 12 20 32 20 44 1 12 7 20 14 18 7 -1 10 2 7 6 -3 5 3 17
14 27 15 14 17 21 9 32 -11 12 -6 17 14 14 4 0 6 5 5 11 -2 7 4 11 12 10 8 -2
12 0 7 4 -4 4 3 18 15 31 12 13 18 23 14 23 -5 0 -2 7 5 17 8 9 14 19 14 22 0
3 4 5 8 3 5 -1 6 2 3 6 -3 5 3 17 14 27 15 14 17 21 9 32 -11 12 -6 17 14 14
4 0 6 5 5 11 -2 7 4 11 12 10 8 -2 12 0 7 4 -4 4 3 18 15 31 12 13 18 23 14
23 -5 0 -4 6 2 13 6 6 12 17 14 22 1 6 7 9 11 7 5 -1 6 2 3 6 -3 5 3 17 14 27
15 14 17 21 9 32 -6 7 -9 14 -5 14 3 1 10 2 15 3 5 0 13 5 17 9 10 10 14 37 6
34 -4 -1 -7 3 -7 8 0 6 3 9 8 7 4 -1 6 4 5 10 -2 7 3 12 10 10 6 -1 11 4 10
10 -2 7 3 12 10 10 8 -1 11 1 8 6 -3 5 4 16 15 26 16 14 18 20 9 32 -7 8 -10
15 -6 15 3 1 10 2 16 3 12 1 37 26 26 26 -5 0 -2 7 5 17 8 9 14 26 14 37 1 13
6 20 15 18 8 -2 12 0 7 4 -4 4 1 16 10 26 10 11 12 18 6 16 -6 -2 -11 2 -11 7
0 6 4 9 9 8 5 -2 8 3 6 10 -1 6 5 11 13 9 8 -2 12 0 7 4 -4 4 0 16 10 26 9 10
13 18 8 18 -4 0 -2 7 5 15 7 8 9 15 5 15 -5 0 0 9 9 19 12 13 14 21 6 26 -5 3
-8 11 -4 16 3 5 10 6 16 3 6 -4 8 -2 4 4 -3 6 -2 14 4 17 8 5 7 11 -1 21 -11
13 -6 18 14 15 5 -1 6 3 3 8 -3 5 0 14 8 20 8 7 13 20 11 29 -1 9 2 22 7 29 5
7 5 14 -2 18 -6 3 -8 11 -4 16 3 5 10 6 16 3 6 -4 8 -2 4 4 -3 6 -2 14 4 17 8
5 7 11 -1 21 -10 12 -6 18 12 16 3 -1 6 5 6 13 0 8 -3 13 -6 12 -3 -1 -6 3 -6
8 0 6 3 9 6 8 3 -1 6 4 6 12 0 8 -3 13 -6 12 -3 -1 -7 3 -8 8 -2 6 3 10 10 10
6 0 12 5 12 10 0 6 4 16 8 23 5 7 5 11 0 10 -4 -2 -8 2 -8 7 0 6 3 9 6 8 3 -1
6 4 6 12 0 8 -4 13 -8 12 -4 -1 -7 3 -7 8 0 6 3 9 7 8 4 -1 8 4 8 12 0 8 -4
13 -8 12 -4 -1 -7 3 -7 8 0 6 3 9 7 8 4 -1 8 4 8 12 0 8 -4 13 -8 12 -4 -1 -7
3 -7 8 0 6 3 9 7 8 4 -1 8 4 8 12 0 8 -3 14 -6 13 -18 -2 -22 4 -12 16 8 10 9
16 1 21 -6 3 -8 11 -4 16 3 5 1 8 -4 7 -6 -2 -10 2 -10 7 0 6 3 9 7 8 7 -2 7
47 1 55 -1 1 -3 8 -4 15 0 6 -7 12 -13 12 -7 0 -13 5 -12 10 1 6 4 9 8 8 4 -1
8 4 8 12 0 8 -5 13 -11 12 -6 -1 -10 4 -8 11 1 6 -2 11 -7 10 -5 -2 -9 2 -9 7
0 6 3 9 7 8 4 -1 8 4 8 12 0 8 -5 13 -11 12 -6 -1 -10 4 -8 11 1 6 -1 11 -5
10 -5 -2 -8 2 -8 7 0 6 4 9 8 7 5 -1 5 3 0 10 -4 7 -8 18 -8 23 0 6 -6 10 -12
10 -7 0 -13 5 -12 10 1 6 6 9 12 7 6 -2 3 6 -7 17 -11 12 -15 21 -11 21 5 0
-2 11 -15 25 -13 14 -20 25 -15 25 5 0 -1 10 -13 23 -12 13 -19 27 -15 31 5 4
1 6 -7 4 -8 -1 -14 3 -12 10 1 6 -1 11 -5 10 -5 -2 -8 2 -8 7 0 6 5 9 10 7 6
-2 -6 13 -24 32 -19 20 -31 36 -26 36 4 0 0 9 -10 20 -9 10 -22 18 -28 17 -6
-1 -11 3 -12 10 0 24 -39 41 -51 22z"/>
</g>
</svg>
