<?xml version="1.0" encoding="utf-8"?>
<svg viewBox="0 0 512 512" width="512" height="512" fill="#000000" xmlns="http://www.w3.org/2000/svg">
  <g>
    <path d="M209.219,438.922l45.172-63.328l84.148-117.969l24.055-33.727h-41.422h-30.414l8.211-72.703l8.969-79.398l-47.352,64.359   l-86.945,118.156l-25,33.977h42.188h31.109l-6.172,73.117L209.219,438.922z M190.828,266.961l86.945-118.164l-10.898,96.438h54.297   l-84.148,117.969l8.125-96.242H190.828z"/>
    <path d="M164.68,39.813c28.914-12.227,59.641-18.43,91.32-18.43s62.406,6.203,91.313,18.43   c27.938,11.82,53.031,28.734,74.586,50.289c5.32,5.328,10.352,10.875,15.109,16.617h-53.039c-5.891,0-10.664,4.773-10.664,10.664   s4.773,10.664,10.664,10.664h74.391c0.734,0,1.453-0.07,2.148-0.211c0.133-0.031,0.258-0.07,0.391-0.102   c0.211-0.055,0.422-0.102,0.633-0.164c0.039-0.016,0.078-0.031,0.117-0.047c3.898-1.258,6.805-4.703,7.297-8.891   c0.047-0.414,0.078-0.828,0.078-1.25V42.711c0-5.891-4.773-10.664-10.664-10.664s-10.664,4.773-10.664,10.664v43.703   C400.805,33.445,332.305,0.055,256,0.055C115.023,0.055,0.617,115.172,0,256c0,5.891,4.773,10.664,10.664,10.664   S21.383,261.891,21.383,256c0-31.68,6.203-62.406,18.43-91.313c11.813-27.938,28.734-53.031,50.289-74.586   S136.75,51.633,164.68,39.813z"/>
    <path d="M501.336,245.336c-5.891,0-10.719,4.773-10.719,10.664c0,31.68-6.203,62.406-18.43,91.32   c-11.813,27.93-28.734,53.023-50.289,74.578s-46.648,38.469-74.578,50.289c-28.914,12.227-59.641,18.43-91.32,18.43   s-62.406-6.203-91.313-18.43c-27.938-11.82-53.031-28.734-74.586-50.289c-5.32-5.328-10.359-10.875-15.109-16.617h53.039   c5.891,0,10.664-4.773,10.664-10.664s-4.773-10.664-10.664-10.664H53.641c-0.734,0-1.453,0.07-2.148,0.211   c-0.133,0.031-0.258,0.07-0.391,0.102c-0.211,0.055-0.43,0.102-0.633,0.164c-0.039,0.016-0.078,0.031-0.117,0.047   c-3.898,1.266-6.805,4.703-7.297,8.891c-0.047,0.414-0.078,0.828-0.078,1.25v74.672c0,5.891,4.773,10.664,10.664,10.664   s10.664-4.773,10.664-10.664v-43.703c46.891,52.969,115.391,86.359,191.695,86.359c140.977,0,255.383-115.117,256-255.945   C512,250.109,507.227,245.336,501.336,245.336z"/>
  </g>
  <text style="fill: rgb(51, 51, 51); font-family: Arial, sans-serif; font-size: 100px; font-weight: 700; text-transform: uppercase; white-space: pre;" x="443.63" y="508.876">D</text>
</svg>