<?xml version="1.0" encoding="utf-8"?>
<svg viewBox="14.821 -81.903 606.084 603.744" width="606.084" height="603.744" xmlns="http://www.w3.org/2000/svg">
  <g style="" transform="matrix(1.078504, 0, 0, 0.949458, -82.518929, -138.827316)">
    <path d="m582.29 409.53-76.719 39.969v-12.926l83.207-43.285c3.4102-1.8008 4.7812-6.0156 2.9844-9.4727-1.7539-3.4102-6.0156-4.7852-9.4727-2.9375l-76.719 39.969v-13.828l83.207-43.332c3.4102-1.8008 4.7812-6.0156 2.9844-9.4727-1.7539-3.3594-6.0156-4.7344-9.4727-2.9336l-76.719 39.922v-13.023l81.789-42.527c2.3672-1.2305 3.7891-3.6484 3.7422-6.2969 0-2.6523-1.4688-5.0195-3.8828-6.2031l-127.39-62.984c-1.9414-0.99609-4.2617-0.99609-6.2031 0l-274.35 134.07c-2.418 1.1836-3.9336 3.6445-3.9336 6.3477 0 2.6992 1.5156 5.1133 3.9297 6.2969l137.2 66.633c0.94531 0.47266 1.9883 0.71094 3.0312 0.71094 1.0898 0 2.2266-0.28516 3.2188-0.80469l88.512-46.125v13.023l-91.875 47.832-134.02-65.07c-3.4023-1.6602-7.6172-0.23828-9.2773 3.2656-1.6562 3.5039-0.28516 7.6719 3.2227 9.3281l137.2 66.633c0.94531 0.47266 1.9883 0.71094 3.0312 0.71094 1.0898 0 2.2266-0.28516 3.2188-0.80469l88.512-46.125v13.781l-91.875 47.832-134.02-65.07c-3.4062-1.707-7.6211-0.23828-9.2812 3.3125-1.7031 3.4102-0.28516 7.6719 3.2227 9.3281l137.2 66.586c0.94531 0.47266 1.9883 0.75781 3.0312 0.75781 1.0898 0 2.2266-0.28516 3.2188-0.85156l88.512-46.078v12.836l-91.875 47.832-134.02-65.023c-3.4062-1.707-7.6211-0.23828-9.2812 3.2656-1.7031 3.457-0.28516 7.6719 3.2227 9.3281l137.2 66.586c0.94531 0.51953 1.9883 0.75781 3.0312 0.75781 1.0898 0 2.2266-0.28516 3.2188-0.85156l98.789-51.336 167.27-87.09c3.4102-1.7539 4.7812-6.0156 2.9844-9.4258-1.7539-3.457-6.0156-4.832-9.4727-3.0312zm-164.09-1.6094-117.07-57.637 66.445-32.488 115.03 56.594zm38.453-133.64 111.95 55.312-70.609 36.75-114.46-56.355zm-137.24 185.07-121.05-58.82 86.855-42.434 117.5 57.824zm123.32-48.445c0.046875-0.050781 0.14062-0.050781 0.1875-0.097656l48.637-25.289v71.227l-66.254 34.523v-71.227z"/>
    <path d="m300.7 277.83c56.547 0 99.262-20.176 99.262-46.883 0-26.711-42.668-46.883-99.262-46.883s-99.309 20.176-99.309 46.883c-0.003906 26.707 42.715 46.883 99.309 46.883zm0-79.75c50.246 0 85.246 17.332 85.246 32.867 0 15.535-34.996 32.867-85.246 32.867-50.246 0-85.246-17.332-85.246-32.867 0-15.535 35-32.867 85.246-32.867z"/>
    <path d="m398.26 271.77c1.6094-3.5508 0-7.7188-3.5039-9.2812-3.5508-1.5625-7.6719 0-9.2812 3.5508-4.832 10.703-38.598 22.305-84.77 22.305-46.176 0-79.941-11.602-84.82-22.352-1.6094-3.5039-5.7305-5.1133-9.2812-3.5039-3.5039 1.6094-5.1133 5.7773-3.5039 9.2812 9.5195 21.027 57.254 30.641 97.605 30.641 40.348 0 88.133-9.6133 97.555-30.641z"/>
    <path d="m307.71 321.87c0-3.8828-3.125-7.0078-6.9609-7.0078-46.176 0-79.941-11.602-84.816-22.398-1.6602-3.4609-5.7812-5.0703-9.332-3.4609-3.5039 1.6094-5.1133 5.7305-3.5039 9.2812 9.5195 21.027 57.254 30.641 97.605 30.641 3.8828 0 7.0078-3.1719 7.0078-7.0547z"/>
    <path d="m257.09 348.72c3.4102 0 6.3945-2.4609 6.9141-5.9688 0.61328-3.7852-2.0352-7.3867-5.8711-7.9531-29.41-4.4062-40.684-11.887-42.48-15.156-1.8945-3.4102-6.1094-4.6406-9.5195-2.793-3.4102 1.8477-4.6406 6.1094-2.7969 9.5195 7.1055 12.93 32.582 19.273 52.711 22.305 0.37891 0.046875 0.71094 0.046875 1.043 0.046875z"/>
    <path d="m215.27 344.93c-2.2266-3.1719-6.5859-3.9766-9.7578-1.75-3.1719 2.2227-3.9766 6.5352-1.8008 9.7539 3.8867 5.5898 12.836 10.039 27.375 13.547 0.56641 0.14062 1.0898 0.1875 1.6562 0.1875 3.1719 0 6.0156-2.1328 6.8203-5.3516 0.89844-3.7891-1.4219-7.5781-5.1602-8.4766-16.246-3.9297-19.039-7.7188-19.133-7.9102z"/>
    <path d="m421.04 349.75c2.5664 6.1836-8.418 16.613-24.531 23.297-16.117 6.6836-31.258 7.0898-33.824 0.90234-2.5664-6.1836 8.418-16.613 24.531-23.297 16.117-6.6836 31.258-7.0898 33.824-0.90234"/>
  </g>
  <g transform="matrix(1.171875, 0, 0, 1.171875, -335.860657, 24.568054)">
    <path d="M 466.814 -48.723 C 495.728 -60.95 526.455 -67.153 558.134 -67.153 C 589.813 -67.153 620.54 -60.95 649.447 -48.723 C 677.385 -36.903 702.478 -19.989 724.033 1.566 C 729.353 6.894 734.385 12.441 739.142 18.183 L 686.103 18.183 C 680.212 18.183 675.439 22.956 675.439 28.847 C 675.439 34.738 680.212 39.511 686.103 39.511 L 760.494 39.511 C 761.228 39.511 761.947 39.441 762.642 39.3 C 762.775 39.269 762.9 39.23 763.033 39.198 C 763.244 39.143 763.455 39.096 763.666 39.034 C 763.705 39.018 763.744 39.003 763.783 38.987 C 767.681 37.729 770.588 34.284 771.08 30.096 C 771.127 29.682 771.158 29.268 771.158 28.846 L 771.158 -45.825 C 771.158 -51.716 766.385 -56.489 760.494 -56.489 C 754.603 -56.489 749.83 -51.716 749.83 -45.825 L 749.83 -2.122 C 702.939 -55.091 634.439 -88.481 558.134 -88.481 C 417.157 -88.481 302.751 26.636 302.134 167.464 C 302.134 173.355 306.907 178.128 312.798 178.128 C 318.689 178.128 323.517 173.355 323.517 167.464 C 323.517 135.784 329.72 105.058 341.947 76.151 C 353.76 48.213 370.681 23.12 392.236 1.565 C 413.791 -19.99 438.884 -36.903 466.814 -48.723 Z"/>
    <path d="M 803.47 156.8 C 797.579 156.8 792.751 161.573 792.751 167.464 C 792.751 199.144 786.548 229.87 774.321 258.784 C 762.508 286.714 745.587 311.807 724.032 333.362 C 702.477 354.917 677.384 371.831 649.454 383.651 C 620.54 395.878 589.813 402.081 558.134 402.081 C 526.455 402.081 495.728 395.878 466.821 383.651 C 438.883 371.831 413.79 354.917 392.235 333.362 C 386.915 328.034 381.876 322.487 377.126 316.745 L 430.165 316.745 C 436.056 316.745 440.829 311.972 440.829 306.081 C 440.829 300.19 436.056 295.417 430.165 295.417 L 355.775 295.417 C 355.041 295.417 354.322 295.487 353.627 295.628 C 353.494 295.659 353.369 295.698 353.236 295.73 C 353.025 295.785 352.806 295.832 352.603 295.894 C 352.564 295.91 352.525 295.925 352.486 295.941 C 348.588 297.207 345.681 300.644 345.189 304.832 C 345.142 305.246 345.111 305.66 345.111 306.082 L 345.111 380.754 C 345.111 386.645 349.884 391.418 355.775 391.418 C 361.666 391.418 366.439 386.645 366.439 380.754 L 366.439 337.051 C 413.33 390.02 481.83 423.41 558.134 423.41 C 699.111 423.41 813.517 308.293 814.134 167.465 C 814.134 161.573 809.361 156.8 803.47 156.8 Z"/>
  </g>
</svg>