<?xml version="1.0" encoding="UTF-8"?>
<!DOCTYPE svg PUBLIC "-//W3C//DTD SVG 1.1//EN" "http://www.w3.org/Graphics/SVG/1.1/DTD/svg11.dtd">
<svg xmlns="http://www.w3.org/2000/svg" version="1.1" width="512px" height="512px" style="shape-rendering:geometricPrecision; text-rendering:geometricPrecision; image-rendering:optimizeQuality; fill-rule:evenodd; clip-rule:evenodd" xmlns:xlink="http://www.w3.org/1999/xlink">
<g><path style="opacity:1" fill="#000000" d="M 394.5,36.5 C 402.808,34.9931 407.641,38.3265 409,46.5C 409.881,55.5623 409.548,64.5623 408,73.5C 403.701,79.8585 398.201,81.0252 391.5,77C 390.54,75.5806 389.707,74.0806 389,72.5C 388.333,62.5 388.333,52.5 389,42.5C 390.36,39.9774 392.193,37.9774 394.5,36.5 Z"/></g>
<g><path style="opacity:1" fill="#000000" d="M 334.5,61.5 C 336.927,61.523 339.26,62.023 341.5,63C 348.302,68.8013 354.802,74.9679 361,81.5C 364.676,94.8218 359.842,99.9884 346.5,97C 340.333,90.8333 334.167,84.6667 328,78.5C 324.368,70.4389 326.535,64.7722 334.5,61.5 Z"/></g>
<g><path style="opacity:1" fill="#000000" d="M 459.5,61.5 C 469.282,62.7329 472.782,68.0663 470,77.5C 463.5,84 457,90.5 450.5,97C 437.688,100.188 432.855,95.3549 436,82.5C 442.5,76 449,69.5 455.5,63C 457.058,62.79 458.391,62.29 459.5,61.5 Z"/></g>
<g><path style="opacity:1" fill="#000000" d="M 392.5,84.5 C 415.986,83.1547 433.152,92.8214 444,113.5C 453.989,142.877 445.489,165.043 418.5,180C 389.576,189.364 367.743,180.864 353,154.5C 343.613,126.989 351.113,105.489 375.5,90C 381.127,87.6232 386.793,85.7899 392.5,84.5 Z M 391.5,105.5 C 416.114,104.281 427.948,115.948 427,140.5C 421.816,156.846 410.65,164.346 393.5,163C 376.103,158.046 368.27,146.546 370,128.5C 373.392,117.238 380.559,109.571 391.5,105.5 Z"/></g>
<g><path style="opacity:1" fill="#000000" d="M 306.5,124.5 C 317.172,124.333 327.839,124.5 338.5,125C 344.791,130.632 345.124,136.632 339.5,143C 328.907,144.595 318.24,144.928 307.5,144C 300.752,140.657 298.919,135.49 302,128.5C 303.397,126.93 304.897,125.596 306.5,124.5 Z"/></g>
<g><path style="opacity:1" fill="#000000" d="M 459.5,124.5 C 470.172,124.333 480.839,124.5 491.5,125C 497.791,130.632 498.124,136.632 492.5,143C 481.907,144.595 471.24,144.928 460.5,144C 453.752,140.657 451.919,135.49 455,128.5C 456.397,126.93 457.897,125.596 459.5,124.5 Z"/></g>
<g><path style="opacity:1" fill="#000000" d="M 137.5,170.5 C 196.583,170.008 255.583,170.508 314.5,172C 354.38,220.878 393.88,270.044 433,319.5C 433.667,361.167 433.667,402.833 433,444.5C 431.878,446.624 430.378,448.457 428.5,450C 342.223,451.659 255.89,451.992 169.5,451C 164.468,449.586 162.134,446.252 162.5,441C 162.61,435.614 165.277,432.28 170.5,431C 195.498,430.5 220.498,430.333 245.5,430.5C 245.667,395.832 245.5,361.165 245,326.5C 210.093,283.683 175.427,240.683 141,197.5C 106.333,240.833 71.6667,284.167 37,327.5C 36.5,361.832 36.3333,396.165 36.5,430.5C 51.5037,430.333 66.5037,430.5 81.5,431C 89.226,433.619 91.726,438.786 89,446.5C 87.2691,448.617 85.1024,450.117 82.5,451C 62.8333,451.667 43.1667,451.667 23.5,451C 18.3941,449.126 15.7274,445.459 15.5,440C 15.552,402.318 15.552,364.151 15.5,325.5C 16.1892,323.556 16.6892,321.556 17,319.5C 55.6667,270.833 94.3333,222.167 133,173.5C 134.409,172.219 135.909,171.219 137.5,170.5 Z M 162.5,191.5 C 171.657,190.342 180.991,190.176 190.5,191C 197.879,199.377 204.879,208.044 211.5,217C 202.167,217.667 192.833,217.667 183.5,217C 177.013,208.019 170.013,199.519 162.5,191.5 Z M 217.5,191.5 C 227.658,190.341 237.992,190.175 248.5,191C 255.26,199.85 262.26,208.516 269.5,217C 259.167,217.667 248.833,217.667 238.5,217C 231.84,208.153 224.84,199.653 217.5,191.5 Z M 275.5,191.5 C 284.657,190.342 293.991,190.176 303.5,191C 310.26,199.85 317.26,208.516 324.5,217C 315.167,217.667 305.833,217.667 296.5,217C 289.362,208.522 282.362,200.022 275.5,191.5 Z M 200.5,238.5 C 209.657,237.342 218.991,237.176 228.5,238C 235.643,247.311 242.977,256.478 250.5,265.5C 241.167,266.833 231.833,266.833 222.5,265.5C 215.113,256.456 207.78,247.456 200.5,238.5 Z M 255.5,238.5 C 265.674,237.177 276.007,237.177 286.5,238.5C 294.023,247.522 301.357,256.689 308.5,266C 298.151,266.832 287.817,266.666 277.5,265.5C 270.113,256.456 262.78,247.456 255.5,238.5 Z M 313.5,237.5 C 322.857,237.168 332.19,237.502 341.5,238.5C 349.023,247.522 356.357,256.689 363.5,266C 354.167,266.667 344.833,266.667 335.5,266C 327.927,256.605 320.594,247.105 313.5,237.5 Z M 239.5,287.5 C 248.657,286.342 257.991,286.176 267.5,287C 274.879,295.377 281.879,304.044 288.5,313C 279.167,313.667 269.833,313.667 260.5,313C 254.013,304.019 247.013,295.519 239.5,287.5 Z M 294.5,287.5 C 304.658,286.341 314.992,286.175 325.5,287C 332.26,295.85 339.26,304.516 346.5,313C 336.167,313.667 325.833,313.667 315.5,313C 308.84,304.153 301.84,295.653 294.5,287.5 Z M 352.5,287.5 C 361.657,286.342 370.991,286.176 380.5,287C 387.26,295.85 394.26,304.516 401.5,313C 392.167,313.667 382.833,313.667 373.5,313C 366.362,304.522 359.362,296.022 352.5,287.5 Z M 144.5,295.5 C 145.156,296.622 145.489,297.955 145.5,299.5C 143.217,316.108 142.05,332.774 142,349.5C 143.5,351 145,352.5 146.5,354C 157.833,354.333 169.167,354.667 180.5,355C 162.212,379.077 144.045,403.244 126,427.5C 125.963,408.102 125.296,388.769 124,369.5C 122.786,367.951 121.286,366.785 119.5,366C 110.167,365.667 100.833,365.333 91.5,365C 109.383,341.957 127.049,318.79 144.5,295.5 Z M 265.5,333.5 C 314.5,333.5 363.5,333.5 412.5,333.5C 412.5,365.833 412.5,398.167 412.5,430.5C 363.5,430.5 314.5,430.5 265.5,430.5C 265.5,398.167 265.5,365.833 265.5,333.5 Z"/></g>
<g><path style="opacity:1" fill="#000000" d="M 348.5,170.5 C 359.872,169.224 364.372,174.224 362,185.5C 357.833,189.667 353.667,193.833 349.5,198C 338.5,199.998 333.667,195.498 335,184.5C 339.031,179.304 343.531,174.637 348.5,170.5 Z"/></g>
<g><path style="opacity:1" fill="#000000" d="M 440.5,170.5 C 443.518,170.335 446.518,170.502 449.5,171C 456.302,176.801 462.802,182.968 469,189.5C 472.503,195.988 471.336,201.488 465.5,206C 461.705,206.837 458.039,206.504 454.5,205C 448.333,198.833 442.167,192.667 436,186.5C 432.994,179.771 434.494,174.438 440.5,170.5 Z"/></g>
<g><path style="opacity:1" fill="#000000" d="M 394.5,189.5 C 402.808,187.993 407.641,191.326 409,199.5C 409.881,208.562 409.548,217.562 408,226.5C 403.701,232.859 398.201,234.025 391.5,230C 390.54,228.581 389.707,227.081 389,225.5C 388.333,215.5 388.333,205.5 389,195.5C 390.36,192.977 392.193,190.977 394.5,189.5 Z"/></g>
<g><path style="opacity:1" fill="#000000" d="M 156.5,248.5 C 164.246,247.585 168.912,250.918 170.5,258.5C 167.833,283.5 165.167,308.5 162.5,333.5C 176.488,334.333 190.488,334.833 204.5,335C 210.777,337.389 212.943,341.889 211,348.5C 183.333,385.5 155.667,422.5 128,459.5C 125.719,462.903 122.886,465.737 119.5,468C 111.743,469.879 106.909,467.045 105,459.5C 104.5,434.836 104.333,410.169 104.5,385.5C 92.1622,385.667 79.8288,385.5 67.5,385C 61.7032,382.24 59.5365,377.74 61,371.5C 90.6667,332.167 120.333,292.833 150,253.5C 151.965,251.45 154.132,249.783 156.5,248.5 Z M 144.5,295.5 C 127.049,318.79 109.383,341.957 91.5,365C 100.833,365.333 110.167,365.667 119.5,366C 121.286,366.785 122.786,367.951 124,369.5C 125.296,388.769 125.963,408.102 126,427.5C 144.045,403.244 162.212,379.077 180.5,355C 169.167,354.667 157.833,354.333 146.5,354C 145,352.5 143.5,351 142,349.5C 142.05,332.774 143.217,316.108 145.5,299.5C 145.489,297.955 145.156,296.622 144.5,295.5 Z"/></g>
</svg>
