<?xml version="1.0" encoding="utf-8"?>
<svg viewBox="0 0 500 500" width="500" height="500" xmlns="http://www.w3.org/2000/svg">
  <g transform="matrix(1.112832, 0, 0, 1.0867, -168.340027, -157.799835)" style="">
    <path d="m362.27 479.71c-5.2109 0-39.781 0.47266-59.672 8.5234v-21.312-0.94531-1.4219-33.152c0-23.207-65.828-24.152-73.406-24.152-7.5742 0.003906-73.402 0.94922-73.402 24.156v33.152 1.4219 0.94531 33.152 1.4219 0.94531 33.152 1.4219 0.94531 33.152c0 23.207 65.828 24.152 73.406 24.152 5.6836 0 47.832-0.47266 65.828-11.84 16.574 12.785 61.094 13.262 67.25 13.262 7.5781 0 73.406-0.47266 73.406-24.152v-33.152-0.94531-1.4219-33.152c0.46875-23.207-65.832-24.156-73.41-24.156zm59.672 56.355c-3.3164 3.7891-23.68 10.418-59.199 10.418s-55.883-6.6289-59.199-10.418v-17.051c19.422 8.5273 53.52 8.5273 58.727 8.5273 5.2109 0 39.309-0.47266 59.199-8.5234v17.047zm-133.07-71.984c-3.3164 3.7891-23.68 10.418-59.199 10.418-35.52 0.003906-56.355-6.6289-59.672-10.418v-17.047c19.891 8.5234 53.988 8.5234 59.199 8.5234 5.2109 0 39.309-0.47266 59.199-8.5234v17.047zm-59.672 24.629c5.2109 0 39.309-0.47266 59.199-8.5234v19.418c-3.3164 3.7891-23.68 10.418-59.199 10.418-35.52-0.003906-55.883-6.6328-59.199-10.422v-19.418c19.891 8.0508 53.988 8.5273 59.199 8.5273zm-59.199 26.992c19.891 8.5234 53.988 8.5234 59.199 8.5234 5.2109 0 39.309-0.47266 59.199-8.5234v19.418c-3.3164 3.7891-23.68 10.418-59.199 10.418-35.52 0-55.883-6.6289-59.199-10.418zm192.27-21.785c33.152 0 53.043 5.6836 58.25 9.9453-5.2109 3.7891-25.102 9.9453-58.25 9.9453s-53.039-6.1562-58.25-9.9453c5.2109-3.7891 25.102-9.9453 58.25-9.9453zm-133.07-71.984c33.152 0 53.043 5.6836 58.25 9.9453-5.2109 3.7891-25.102 9.9453-58.25 9.9453-33.152 0-53.043-6.1562-58.25-10.418 5.207-3.7891 25.098-9.4727 58.25-9.4727zm0 159.12c-35.52 0-55.883-6.6289-59.199-10.418v-19.418c19.891 8.5234 53.988 8.5234 59.199 8.5234 5.2109 0 39.309-0.47266 59.199-8.5234v19.418c-3.3164 3.7891-23.68 10.418-59.199 10.418zm133.07 0.94531c-35.52 0-55.883-6.6289-59.199-10.418v-19.418c19.895 8.5273 53.992 8.5273 59.199 8.5273 5.2109 0 39.309-0.47266 59.199-8.5234v19.418c-2.8398 3.7852-23.68 10.414-59.199 10.414z"/>
    <path d="m376 155.79c-121.23 0-220.21 98.98-220.21 220.21 0 3.7891 3.3164 7.1055 7.1055 7.1055s7.1055-3.3164 7.1055-7.1055c-0.003906-113.66 92.348-206.01 206-206.01 113.66 0 206.01 92.352 206.01 206.01 0 78.141-43.57 148.7-113.66 184.22-3.3164 1.8945-4.7344 6.1562-3.3164 9.4727 1.4219 2.3672 3.7891 3.7891 6.1562 3.7891 0.94531 0 2.3672-0.47266 3.3164-0.94531 75.301-37.414 121.71-112.71 121.71-196.54 0-121.23-98.977-220.21-220.21-220.21z"/>
    <path d="m555.49 383.11c3.7891 0 7.1055-3.3164 7.1055-7.1055s-3.3164-7.1055-7.1055-7.1055h-35.52c-3.7891 0-7.1055 3.3164-7.1055 7.1055s3.3164 7.1055 7.1055 7.1055z"/>
    <path d="m232.03 383.11c3.7891 0 7.1055-3.3164 7.1055-7.1055s-3.3164-7.1055-7.1055-7.1055h-35.52c-3.7891 0-7.1055 3.3164-7.1055 7.1055s3.3164 7.1055 7.1055 7.1055z"/>
    <path d="m383.11 232.03v-35.52c0-3.7891-3.3164-7.1055-7.1055-7.1055s-7.1055 3.3164-7.1055 7.1055v35.52c0 3.7891 3.3164 7.1055 7.1055 7.1055s7.1055-3.3164 7.1055-7.1055z"/>
    <path d="m277.97 237.71c-3.3164 2.3672-3.7891 6.6289-1.8945 9.9453l95.664 135.45h99.453c3.7891 0 7.1055-3.3164 7.1055-7.1055s-3.3164-7.1055-7.1055-7.1055l-91.402 0.003907-91.875-129.29c-1.8945-3.3125-6.6289-3.7891-9.9453-1.8945z"/>
  </g>
</svg>