<?xml version="1.0" encoding="utf-8"?>
<svg viewBox="401.882 236.026 66.124 72.004" width="66.124" height="72.004" xmlns="http://www.w3.org/2000/svg">
  <g transform="matrix(1, 0, 0, 1, 384.97821, -730.334412)">
    <path style="font-size:medium;font-style:normal;font-variant:normal;font-weight:normal;font-stretch:normal;text-indent:0;text-align:start;text-decoration:none;line-height:normal;letter-spacing:normal;word-spacing:normal;text-transform:none;direction:ltr;block-progression:tb;writing-mode:lr-tb;text-anchor:start;baseline-shift:baseline;opacity:1;color:#000000;fill:#000000;fill-opacity:1;stroke:none;stroke-width:4;marker:none;visibility:visible;display:inline;overflow:visible;enable-background:accumulate;font-family:Sans;-inkscape-font-specification:Sans" d="M 63.8125 14 A 2.0021961 2.0021961 0 1 0 64 18 L 69.78125 18 C 58.795059 32.707884 46.852009 44.342607 25.65625 48.03125 A 2.0002 2.0002 0 1 0 26.34375 51.96875 C 48.047694 48.191545 60.968792 36.139054 72 21.6875 L 72 26 A 2.0002 2.0002 0 1 0 76 26 L 76 16 A 2.0002 2.0002 0 0 0 74 14 L 64 14 A 2.0002 2.0002 0 0 0 63.8125 14 z M 63.8125 36 A 2.0002 2.0002 0 0 0 62 38 L 62 82 L 58 82 L 58 56 A 2.0002 2.0002 0 0 0 56 54 L 44 54 A 2.0002 2.0002 0 0 0 43.8125 54 A 2.0002 2.0002 0 0 0 42 56 L 42 82 L 38 82 L 38 66 A 2.0002 2.0002 0 0 0 36 64 L 24 64 A 2.0002 2.0002 0 0 0 23.8125 64 A 2.0002 2.0002 0 0 0 22 66 L 22 82 L 19 82 A 2.0002 2.0002 0 0 0 18.8125 82 A 2.0021961 2.0021961 0 1 0 19 86 L 81 86 A 2.0002 2.0002 0 1 0 81 82 L 78 82 L 78 38 A 2.0002 2.0002 0 0 0 76 36 L 64 36 A 2.0002 2.0002 0 0 0 63.8125 36 z M 66 40 L 74 40 L 74 82 L 66 82 L 66 40 z M 46 58 L 54 58 L 54 82 L 46 82 L 46 58 z M 26 68 L 34 68 L 34 82 L 26 82 L 26 68 z " transform="translate(0,952.36218)"/>
  </g>
  <g data-name="Layer 2" transform="matrix(1, 0, 0, 1, 400.71228, 236.527832)">
    <path d="M12,23a9.01,9.01,0,0,1-9-9C3,6.5312,11.124,1.3682,11.47,1.1523a.9975.9975,0,0,1,1.06,0C12.876,1.3682,21,6.5312,21,14A9.01,9.01,0,0,1,12,23ZM12,3.2109C10.2837,4.4375,5,8.6514,5,14a7,7,0,0,0,14,0C19,8.6514,13.7163,4.4375,12,3.2109ZM18,14a1,1,0,0,0-2,0,4.0042,4.0042,0,0,1-4,4,1,1,0,0,0,0,2A6.0066,6.0066,0,0,0,18,14Z"/>
  </g>
</svg>