<?xml version="1.0" encoding="utf-8"?>
<svg xmlns="http://www.w3.org/2000/svg" viewBox="106.7301 58.6704 256 240.844" width="256px" height="240.844px"><g transform="matrix(1, 0, 0, 1, 34.73011016845704, -20.907564163208008)" id="object-0"><path class="fil0" d="M125.204 182.766l20.375 12.271 20.625 -12.275 -0.439 -10.021 -20.029 0 -20.085 0 -0.447 10.025zm113.937 -5.841l25.981 0 -1.844 5.06 -24.565 0c-1.291,3.254 -4.467,5.556 -8.181,5.556 -4.859,0 -8.798,-3.939 -8.798,-8.798 0,-4.859 3.939,-8.798 8.798,-8.798 4.236,0 7.772,2.994 8.609,6.98zm53.939 0l22.577 0c2.787,0 5.318,1.137 7.15,2.969 1.832,1.832 2.968,4.362 2.968,7.15l0 70.138 -5.059 -3.795 0 -66.343c0,-1.392 -0.569,-2.657 -1.486,-3.574 -0.916,-0.916 -2.181,-1.485 -3.573,-1.485l-26.577 0 4 -5.06zm-30.511 -22.921l18.65 -2.31 -17.639 54.079 53.285 -72.679 -24.917 3.027 18.651 -35.494 -27.984 -1.063 -20.046 54.44zm-23.158 109.379l41.28 -38.546 16.167 15.096 0 -9.019 8.006 0 0 16.494 17.108 15.975 6.028 0 0 5.629 -94.617 0 0 -5.629 6.028 0zm75.661 10.604l0 44.917 -20.46 0 0 -24.772c0,-2.272 -1.858,-4.131 -4.131,-4.131l-19.579 0c-2.272,0 -4.13,1.859 -4.13,4.131l0 24.772 -20.461 0 0 -44.917 68.761 0zm-148.561 -84.22l-14.929 8.885 15.734 9.476 -0.805 -18.361zm1.511 25.974l-22.443 -13.516 -22.143 13.178 -0.944 6.667 46.436 0 -0.906 -6.329zm-43.935 -7.913l15.488 -9.218 -14.683 -8.844 -0.805 18.062zm-1.306 -113.454l23.016 -14.796 22.895 14.796 2.984 47.98 32.991 24.299 0.001 0 0 6.088 0 7.102 4.075 0 0 6.088 -4.075 0 0 6.959 4.075 0 0 6.088 -13.043 0 0 -6.088 4.076 0 0 -6.959 -4.076 0 0 -6.088 4.076 0 0 -7.102 -26.209 0 2.28 36.65 3.303 18.506 35.552 26.184 0 7.126 0 8.311 4.77 0 0 7.125 -4.77 0 0 8.144 4.77 0 0 7.125 -15.264 0 0 -7.125 4.77 0 0 -8.144 -4.77 0 0 -7.125 4.77 0 0 -8.311 -23.882 0 10.572 59.215 -12.657 0 -8.479 -59.215 -28.796 0 -28.789 0 -8.39 59.215 -12.752 0 10.571 -59.215 -23.882 0 0 8.311 4.771 0 0 7.125 -4.771 0 0 8.144 4.771 0 0 7.125 -15.265 0 0 -7.125 4.77 0 0 -8.144 -4.77 0 0 -7.125 4.77 0 0 -8.311 0 -7.126 35.465 -25.695 3.391 -18.995 2.28 -36.65 -26.21 0 0 7.102 4.077 0 0 6.088 -4.077 0 0 6.959 4.077 0 0 6.088 -13.044 0 0 -6.088 4.076 0 0 -6.959 -4.076 0 0 -6.088 4.076 0 0 -7.102 0 -6.088 0 0 32.965 -23.885 3.011 -48.394zm49.331 54.973l1.076 17.306 22.001 0 -23.077 -17.306zm8.654 87.604l3.059 17.13 19.785 0 -22.844 -17.13zm-7.254 17.13l-3.578 -24.986 -47.464 0 -1.086 0.79 -3.428 24.196 27.78 0 27.776 0zm-8.014 -87.428l-0.936 -21.351 -37.689 0 -0.951 21.351 19.814 0 19.762 0zm-1.199 -27.354l-0.307 -6.999c-0.385,-0.037 -0.763,-0.158 -1.101,-0.37l-17.155 -10.774 -17.155 10.774c-0.346,0.217 -0.734,0.339 -1.128,0.373l-0.313 6.996 37.159 0zm-0.549 -12.531l-0.723 -16.471 -12.752 8.009 13.475 8.462zm-0.966 -22.019l-0.274 -6.252 0 0 -16.405 -10.619 -17.157 10.864 -0.267 6.003 17.055 10.71 17.048 -10.706zm-34.351 5.541l-0.735 16.493 13.499 -8.477 -12.764 -8.016zm-20.785 143.791l2.914 -16.325 -22.447 16.325 19.533 0zm10.636 -87.428l1.033 -16.596 -22.818 16.596 21.785 0z"/></g></svg>