<?xml version="1.0" encoding="utf-8"?>
<svg viewBox="401.882 236.026 66.124 72.004" width="66.124" height="72.004" xmlns="http://www.w3.org/2000/svg">
  <g transform="matrix(1, 0, 0, 1, 384.97821, -730.334412)">
    <path style="font-size:medium;font-style:normal;font-variant:normal;font-weight:normal;font-stretch:normal;text-indent:0;text-align:start;text-decoration:none;line-height:normal;letter-spacing:normal;word-spacing:normal;text-transform:none;direction:ltr;block-progression:tb;writing-mode:lr-tb;text-anchor:start;baseline-shift:baseline;opacity:1;color:#000000;fill:#000000;fill-opacity:1;stroke:none;stroke-width:4;marker:none;visibility:visible;display:inline;overflow:visible;enable-background:accumulate;font-family:Sans;-inkscape-font-specification:Sans" d="M 63.8125 14 A 2.0021961 2.0021961 0 1 0 64 18 L 69.78125 18 C 58.795059 32.707884 46.852009 44.342607 25.65625 48.03125 A 2.0002 2.0002 0 1 0 26.34375 51.96875 C 48.047694 48.191545 60.968792 36.139054 72 21.6875 L 72 26 A 2.0002 2.0002 0 1 0 76 26 L 76 16 A 2.0002 2.0002 0 0 0 74 14 L 64 14 A 2.0002 2.0002 0 0 0 63.8125 14 z M 63.8125 36 A 2.0002 2.0002 0 0 0 62 38 L 62 82 L 58 82 L 58 56 A 2.0002 2.0002 0 0 0 56 54 L 44 54 A 2.0002 2.0002 0 0 0 43.8125 54 A 2.0002 2.0002 0 0 0 42 56 L 42 82 L 38 82 L 38 66 A 2.0002 2.0002 0 0 0 36 64 L 24 64 A 2.0002 2.0002 0 0 0 23.8125 64 A 2.0002 2.0002 0 0 0 22 66 L 22 82 L 19 82 A 2.0002 2.0002 0 0 0 18.8125 82 A 2.0021961 2.0021961 0 1 0 19 86 L 81 86 A 2.0002 2.0002 0 1 0 81 82 L 78 82 L 78 38 A 2.0002 2.0002 0 0 0 76 36 L 64 36 A 2.0002 2.0002 0 0 0 63.8125 36 z M 66 40 L 74 40 L 74 82 L 66 82 L 66 40 z M 46 58 L 54 58 L 54 82 L 46 82 L 46 58 z M 26 68 L 34 68 L 34 82 L 26 82 L 26 68 z " transform="translate(0,952.36218)"/>
  </g>
  <g transform="matrix(0.285196, 0, 0, 0.312676, 398.940826, -61.704765)" style="">
    <path style="font-size:medium;font-style:normal;font-variant:normal;font-weight:normal;font-stretch:normal;text-indent:0;text-align:start;text-decoration:none;line-height:normal;letter-spacing:normal;word-spacing:normal;text-transform:none;direction:ltr;block-progression:tb;writing-mode:lr-tb;text-anchor:start;baseline-shift:baseline;opacity:1;color:#000000;fill:#000000;fill-opacity:1;stroke:none;stroke-width:6;marker:none;visibility:visible;display:inline;overflow:visible;enable-background:accumulate;font-family:Sans;-inkscape-font-specification:Sans" d="M 52.8125 5 A 3.0003 3.0003 0 0 0 51.21875 5.5625 C 23.71626 25.93471 16 45.55004 16 66 C 16 72.8537 18.734934 79.9066 23.4375 85.4375 C 28.140066 90.9684 34.988144 95 43 95 A 3.0003 3.0003 0 0 0 45.0625 89.78125 C 42.477227 87.36295 40 82.5783 40 77 C 40 72.9938 41.694625 68.29065 45.9375 63.28125 C 46.30666 65.24385 46.944415 67.0202 47.8125 68.5625 C 49.723433 71.9577 52.373109 74.34185 54.5 76.46875 C 56.626891 78.59555 58.136528 80.39995 58.625 82.21875 C 59.113472 84.03745 58.93029 86.3584 56.4375 90.4375 A 3.0003 3.0003 0 0 0 59 95 C 72.86408 95 84 81.4615 84 66 C 84 55.1165 78.350006 48.0307 72.375 40.15625 C 66.399994 32.28178 59.779985 23.26041 55.90625 7.28125 A 3.0003 3.0003 0 0 0 52.8125 5 z M 51.46875 13.0625 C 55.723836 27.32851 62.170063 36.59218 67.625 43.78125 C 73.649994 51.7216 78 57.1427 78 66 C 78 76.3389 71.737245 85.112 64.0625 87.9375 C 64.848003 85.2914 64.992356 82.83865 64.40625 80.65625 C 63.425972 77.00635 60.998109 74.4981 58.75 72.25 C 56.501891 70.0019 54.339067 67.9486 53.03125 65.625 C 51.723433 63.3014 51.066188 60.73245 51.9375 56.59375 A 3.0003 3.0003 0 0 0 47.03125 53.71875 C 38.16637 61.34675 34 69.4574 34 77 C 34 80.9321 34.916243 84.4796 36.34375 87.5625 C 33.164773 86.2831 30.319491 84.2538 28.03125 81.5625 C 24.242985 77.107 22 71.2006 22 66 C 22 47.8424 27.931074 31.56214 51.46875 13.0625 z " transform="translate(0,952.36218)"/>
  </g>
</svg>